<svg xmlns="http://www.w3.org/2000/svg" viewBox="0 0 82.66 95.73"><defs><style>.cls-1,.cls-2{fill:#fff;}.cls-2{fill-rule:evenodd;}</style></defs><title>logo_stellone</title><g id="Livello_2" data-name="Livello 2"><g id="Livello_1-2" data-name="Livello 1"><path class="cls-1" d="M59.14,72.38a2.26,2.26,0,0,1,.35-.17,3.52,3.52,0,0,0-2.55-1.87,1.67,1.67,0,0,1-.57-.1.9.9,0,0,0-1,.15c-.41.31-2.21,1.31-3.55,2l-1.22.69a8.13,8.13,0,0,0-2.7,2.25,18.92,18.92,0,0,1-1.27,2h0a1.69,1.69,0,0,1,.33,0l.23,0c.34-.48.71-1.07,1.12-1.79a7.73,7.73,0,0,1,2.53-2.09l1.1-.62.13-.07c1.33-.74,3.15-1.75,3.59-2.08a.48.48,0,0,1,.59-.08,2.19,2.19,0,0,0,.71.13,3.05,3.05,0,0,1,2.14,1.62Z"/><path class="cls-1" d="M60.35,74.34a.88.88,0,0,1-.43.19c.58,1.59,1.41,3.8,1.91,5.12a1,1,0,0,1,.56.13C61.91,78.54,61,76.07,60.35,74.34Z"/><path class="cls-1" d="M24.08,72.44a3.1,3.1,0,0,1,2.16-1.63,2.16,2.16,0,0,0,.69-.13.83.83,0,0,1,.27-.07.6.6,0,0,1,.34.15c.4.31,2,1.2,3.31,1.93l1.49.84a7.26,7.26,0,0,1,2.52,2.09c.36.6.68,1.12,1,1.57a.77.77,0,0,1,.56,0c-.36-.5-.72-1.08-1.15-1.8a7.85,7.85,0,0,0-2.69-2.25l-1.5-.85c-1.28-.71-2.87-1.6-3.26-1.89a.94.94,0,0,0-1-.15,1.58,1.58,0,0,1-.54.1,3.5,3.5,0,0,0-2.51,1.79A.81.81,0,0,1,24.08,72.44Z"/><path class="cls-1" d="M21.46,79.33c.36-1,.85-2.24,1.29-3.44l-.22-.08a1,1,0,0,1-.18-.16c-.48,1.29-1,2.7-1.39,3.68A1.06,1.06,0,0,1,21.46,79.33Z"/><path class="cls-1" d="M69.41,35.94a22.74,22.74,0,0,1,.28,2.35.49.49,0,0,0,.49.46h1.64l.44.25a2.7,2.7,0,0,1-.64-1.06,1.16,1.16,0,0,1,0-.18h-.94c-.07-.77-.15-1.39-.26-2S70.18,34.57,70,34l.19-.06a1,1,0,0,1-.58-.85h0l-.35.11a.57.57,0,0,0-.3.31.5.5,0,0,0,0,.34C69.16,34.51,69.3,35.24,69.41,35.94Z"/><path class="cls-1" d="M70.62,51.39a4.77,4.77,0,0,1,0-.51l-.13.41-.51.17L68.47,51a.88.88,0,0,1,.06.92l-.06.11,1.4.44a.47.47,0,0,0,.31,0l.85-.3A.8.8,0,0,1,70.62,51.39Z"/><path class="cls-1" d="M14.05,33.58a.51.51,0,0,0-.15-.49.46.46,0,0,0-.2-.13l-.14,0a.92.92,0,0,1-.6,1c-.15.64-.27,1.26-.35,1.85s-.2,1.27-.25,1.84h-1.1c-.35.47-.73.93-1.13,1.37a.75.75,0,0,1-.35.21.87.87,0,0,1-.27.41v2.28a.51.51,0,0,0,.26.44l1,.56a.5.5,0,0,0,.24.06h1.32c.06.73.14,1.37.24,2l.05.31c.09.5.18,1,.29,1.51l-1.51.48a.55.55,0,0,0-.25.2l-.55.79a.51.51,0,0,0-.06.43l.61,1.88a5,5,0,0,1,.5-1.23.64.64,0,0,1,.1-.13l-.2-.59.31-.46.54-.17a1,1,0,0,1,.1-.42,3.6,3.6,0,0,1,1.26-1.57c-.06-.3-.11-.6-.17-.89l0-.3c-.11-.71-.2-1.47-.26-2.36a.5.5,0,0,0-.5-.46H11.16l-.66-.36V38.89l.43-.33h1.89a.49.49,0,0,0,.5-.49v0a18,18,0,0,1,.26-2.15A18.8,18.8,0,0,1,14.05,33.58Z"/><path class="cls-1" d="M63.05,58.66v0a.55.55,0,0,0-.17.2c-.39.46-.84.93-1.44,1.53A18.84,18.84,0,0,1,59.71,62a.5.5,0,0,0-.09.67l1,1.34.1.75-2.15,1.55L58,66.1,56.9,64.57a.54.54,0,0,0-.72-.08c-.62.39-1.27.74-1.89,1.06s-1.42.67-2.15,1a.49.49,0,0,0-.28.61l.5,1.56-.15.74-2.51.82L49.24,70l-.59-1.8a.5.5,0,0,0-.38-.31.48.48,0,0,0-.31,0c-.59.13-1.21.24-1.82.35l-.25,0c-.71.11-1.48.2-2.36.27a.49.49,0,0,0-.46.49v1.66l-.37.64H40l-.32-.42V69a.49.49,0,0,0-.49-.49h0c-.7,0-1.43-.14-2.17-.25a23,23,0,0,1-2.3-.49.48.48,0,0,0-.43.1.47.47,0,0,0-.18.27l-.49,1.54-.56.5-2.53-.82-.18-.51.58-1.81a.5.5,0,0,0-.09-.44.56.56,0,0,0-.27-.18c-.66-.28-1.31-.6-1.95-.91s-1.33-.73-2.05-1.17a.53.53,0,0,0-.68.13l-1,1.34-.68.3-2.14-1.56V64l1.11-1.53a.47.47,0,0,0,.07-.44.48.48,0,0,0-.28-.31c-.43-.36-.85-.76-1.26-1.16l-.27-.26c-.48-.47-1-1-1.6-1.74a.48.48,0,0,0-.66-.08l-1.33,1-.76.08-.27-.39a1.09,1.09,0,0,1-.68.76l.32.44a.5.5,0,0,0,.45.2l1.17-.12a.51.51,0,0,0,.24-.1l1.07-.77c.5.57.94,1,1.36,1.46l.28.26c.34.34.7.69,1.07,1l-.92,1.28a.45.45,0,0,0-.1.3l0,1a.51.51,0,0,0,.2.38l2.57,1.88a.46.46,0,0,0,.49,0l1.07-.48a.42.42,0,0,0,.19-.16l.79-1.08c.59.36,1.16.69,1.77,1s1.08.52,1.65.77l-.49,1.52a.5.5,0,0,0,0,.32l.31.89a.5.5,0,0,0,.31.31l3,1a.47.47,0,0,0,.48-.1l.87-.77a.48.48,0,0,0,.15-.22l.4-1.27c.65.16,1.3.29,2,.4s1.23.17,1.85.22v1.61a.5.5,0,0,0,.09.29l.57.75a.47.47,0,0,0,.39.2H43a.48.48,0,0,0,.43-.25l.58-1a.42.42,0,0,0,.07-.24V69.49c.72-.07,1.38-.15,2-.24l.26,0c.51-.09,1-.18,1.55-.29l.5,1.51a.47.47,0,0,0,.19.25l.79.54a.47.47,0,0,0,.43.06l3-1a.46.46,0,0,0,.33-.37l.24-1.15a.49.49,0,0,0,0-.24l-.4-1.26c.61-.26,1.21-.53,1.8-.85s1.09-.56,1.64-.89l.93,1.29a.53.53,0,0,0,.26.18l.92.27a.48.48,0,0,0,.43-.07l2.58-1.86a.48.48,0,0,0,.2-.46l-.14-1.17a.5.5,0,0,0-.09-.23l-.78-1.07a18.27,18.27,0,0,0,1.46-1.36c.33-.33.81-.82,1.29-1.35l.06,0A3.72,3.72,0,0,1,63.05,58.66Z"/><path class="cls-1" d="M72.86,39.55c-.13-.11-.26-.21-.38-.33v2.57l-.44.33H70.16a.5.5,0,0,0-.49.45c-.07.79-.18,1.65-.27,2.22s-.25,1.4-.47,2.32a.5.5,0,0,0,.33.59l1.56.5.52.57,0,.15a1.56,1.56,0,0,1,.5-.46,1.09,1.09,0,0,1,.49-.11l0,0-.79-.88a.52.52,0,0,0-.22-.14L70,46.9c.17-.74.29-1.36.39-2s.16-1.16.23-1.83h1.6a.51.51,0,0,0,.29-.1l.78-.58a.51.51,0,0,0,.19-.4V40.56A.91.91,0,0,1,72.86,39.55Z"/><path class="cls-1" d="M19.77,22.1a.46.46,0,0,0,.29-.2,20.86,20.86,0,0,1,1.46-1.57c.48-.48,1-1,1.74-1.6a.56.56,0,0,0,.17-.4.48.48,0,0,0-.09-.29l-1-1.31L22.29,16l2.16-1.56.52.15,1.11,1.53a.52.52,0,0,0,.45.19.58.58,0,0,0,.28-.12c.49-.29.94-.54,1.42-.79l.32-.17a21.79,21.79,0,0,1,2.29-1,.53.53,0,0,0,.31-.48.78.78,0,0,0,0-.16L30.61,12l.16-.72,2.52-.84.45.31.58,1.82a.47.47,0,0,0,.31.32.48.48,0,0,0,.42,0c.63-.15,1.2-.27,1.89-.37l.16,0a21.35,21.35,0,0,1,2.34-.26.51.51,0,0,0,.47-.52V10l.36-.65h2.66l.33.44v1.9a.49.49,0,0,0,.21.4.44.44,0,0,0,.4.08c.7.07,1.4.16,2.06.26s1.47.27,2.32.47a.52.52,0,0,0,.61-.33l.5-1.56.55-.51,2.53.81.18.53L52,13.63a.48.48,0,0,0,.1.44.49.49,0,0,0,.28.18c.56.23,1.19.53,1.93.91a21.24,21.24,0,0,1,2.06,1.16.47.47,0,0,0,.5,0,.44.44,0,0,0,.19-.19l.94-1.3.69-.3,2.15,1.56v.55l-1.11,1.54a.53.53,0,0,0-.06.41.59.59,0,0,0,.2.29c.57.49,1.12,1,1.59,1.49a22.18,22.18,0,0,1,1.59,1.73.53.53,0,0,0,.69.08l1.33-1h.08a1.07,1.07,0,0,1-.06-1l-.27,0a.43.43,0,0,0-.22.09l-1.08.78c-.49-.56-.94-1-1.36-1.45s-.86-.86-1.36-1.29l.94-1.29a.57.57,0,0,0,.1-.31l0-1a.48.48,0,0,0-.2-.38l-2.59-1.88a.46.46,0,0,0-.49-.05L57.51,14a.45.45,0,0,0-.2.16l-.78,1.08q-.91-.56-1.74-1c-.62-.32-1.17-.58-1.67-.8L53.61,12a.42.42,0,0,0,0-.31l-.31-.92a.49.49,0,0,0-.32-.31l-3-1a.51.51,0,0,0-.49.11l-.86.79a.46.46,0,0,0-.13.21l-.41,1.26c-.7-.16-1.35-.29-2-.38s-1.21-.18-1.83-.24V9.61a.47.47,0,0,0-.1-.3l-.58-.77a.49.49,0,0,0-.4-.2H40a.48.48,0,0,0-.43.26l-.56,1a.51.51,0,0,0-.07.24v1.33c-.74.06-1.43.16-2,.25l-.15,0c-.64.09-1.19.2-1.69.31l-.48-1.52a.53.53,0,0,0-.19-.26l-.79-.54a.49.49,0,0,0-.44-.06l-3,1a.48.48,0,0,0-.33.36l-.25,1.13a.46.46,0,0,0,0,.26l.42,1.27c-.67.28-1.38.61-2,.91l-.33.18-1.15.63-.93-1.28a.53.53,0,0,0-.26-.19l-.92-.27a.5.5,0,0,0-.43.07l-2.59,1.88a.51.51,0,0,0-.2.45L21.41,17a.5.5,0,0,0,.09.24l.78,1.07c-.57.5-1,.94-1.46,1.36S20,20.48,19.55,21L19,20.55a.87.87,0,0,1-.27.53l-.31.27,1,.7A.51.51,0,0,0,19.77,22.1Z"/><path class="cls-1" d="M65.39,36.89a.5.5,0,0,0-.24-.36.51.51,0,0,0-.42,0L52.89,41.07l9.68-7a.49.49,0,0,0-.29-.89h-12L62.49,29.9h0a.52.52,0,0,0,.44-.3.48.48,0,0,0-.08-.52l0,0a24.21,24.21,0,0,0-17.12-12.5.47.47,0,0,0-.41.12.46.46,0,0,0-.17.39l.68,12.84L42.1,18.47a.51.51,0,0,0-.47-.34h0a.49.49,0,0,0-.47.34l-3.69,11.4L38.16,17a.45.45,0,0,0-.17-.39.5.5,0,0,0-.4-.13A24.41,24.41,0,0,0,20.13,29a.52.52,0,0,0,.1.6.5.5,0,0,0,.22.13L33,33.13H21a.51.51,0,0,0-.47.34.49.49,0,0,0,.18.55l9.65,7L18.28,36.31a.54.54,0,0,0-.64.29.34.34,0,0,0-.05.14,25.11,25.11,0,0,0-.25,3.6c0,.65,0,1.3.08,1.95a.85.85,0,0,1,.84-.22l.14,0c0-.59-.08-1.18-.08-1.78a24.62,24.62,0,0,1,.17-2.88L33,43.15l-8.46,13a23.39,23.39,0,0,1-4.68-7.54,2.26,2.26,0,0,1-.23.63,4.4,4.4,0,0,1,.06.73.89.89,0,0,1-.13.47,24.35,24.35,0,0,0,4.65,6.79.53.53,0,0,0,.42.21.48.48,0,0,0,.45-.31l7-10.81L28.39,57.76a.51.51,0,0,0,.18.55.48.48,0,0,0,.58,0l9.65-7-8.13,10a.53.53,0,0,0-.1.42.49.49,0,0,0,.27.34,24.15,24.15,0,0,0,21.46-.09.49.49,0,0,0,.16-.75l-8-9.91,9.68,7a.49.49,0,0,0,.76-.55L51.19,46.42l6.88,10.65a.45.45,0,0,0,.36.22.47.47,0,0,0,.4-.14l.07-.07a24.15,24.15,0,0,0,5-7.7,1,1,0,0,1-.32-.94.61.61,0,0,1,.05-.12.86.86,0,0,1,0-.76,1,1,0,0,1,1-.45,24.34,24.34,0,0,0,1-6.77A23.26,23.26,0,0,0,65.39,36.89Zm-3.65-7.81L47,33l-.81-15.35A23.25,23.25,0,0,1,61.74,29.08ZM21.29,29A23.43,23.43,0,0,1,37.14,17.57L36.31,33Zm30,32.37a22.8,22.8,0,0,1-9.82,2.18,23.1,23.1,0,0,1-9.65-2.1l9.8-12Zm2.16-4.71L42,48.28a.46.46,0,0,0-.29-.1h0a.47.47,0,0,0-.33.09L29.8,56.62l4.41-13.55,0-.11a.64.64,0,0,0,0-.2.4.4,0,0,0-.1-.18h0A.6.6,0,0,0,34,42.5L22.5,34.12H36.77a.51.51,0,0,0,.47-.34l4.39-13.56L46,33.78a.51.51,0,0,0,.47.34H60.76L49.27,42.49a.5.5,0,0,0-.21.43.75.75,0,0,0,0,.21Zm5.1-.61-8.3-12.86,14.24-5.5a21.83,21.83,0,0,1,.16,2.69A23.09,23.09,0,0,1,58.56,56Z"/><path class="cls-1" d="M28.9,58l-.1-.07,4.86-15L20.94,33.68l0-.13H36.72L41.56,18.6h.13l4.87,14.95H62.28l0,.13L49.61,42.93l4.85,15-.11.07L41.63,48.73Zm12.73-9.4,0,0,12.59,9.14L49.45,42.88l0,0,12.58-9.16H46.46l0,0-4.81-14.8L36.82,33.69H21.19l12.63,9.19v0L29,57.73Z"/><path class="cls-1" d="M72.4,62.65c-.06,0-.08,0-.09,0s-.09-.11.18-.4A20.33,20.33,0,0,1,71.19,57c-.08-1-.16-1.78-.23-2.46a9.64,9.64,0,0,1-.12-2.41,5,5,0,0,0,0-1c0-.89,0-1.9.41-2.2a3.49,3.49,0,0,1,2.77-.47,36.05,36.05,0,0,0,1.33-4c.07-.75.22-1.58,1.29-1.88a2,2,0,0,1,1-.09c.12,0,.15,0,.21,0a.63.63,0,0,0,.16-.26.57.57,0,0,1,.39-.41,3.26,3.26,0,0,1,.46-.09,1.27,1.27,0,0,0,.52-.19,3.37,3.37,0,0,0,.32-.19,3.32,3.32,0,0,1,.8-.38.2.2,0,0,1,.19,0,3.23,3.23,0,0,1,.57,2,13.21,13.21,0,0,1-.08,1.55,1.79,1.79,0,0,1,.31,2.47,1.73,1.73,0,0,1,.61,2.23,6.79,6.79,0,0,1-2.76,2.74,2.13,2.13,0,0,1,.4,1.35,4.38,4.38,0,0,1-1.7,2.9C76.83,57.53,76.25,58,76,58.21a1.38,1.38,0,0,1,.38,1c0,.74-.66,1.51-1.87,2.29C73,62.47,72.56,62.65,72.4,62.65Zm1-14.13a3.89,3.89,0,0,0-2,.59c-.33.25-.34,1.3-.35,2.07a6.28,6.28,0,0,1-.06,1,9.8,9.8,0,0,0,.12,2.36c.07.67.16,1.51.23,2.46a20.73,20.73,0,0,0,1.31,5.19l0,0,0,0a1.45,1.45,0,0,0-.18.21,10.44,10.44,0,0,0,2-1.12c1.14-.74,1.76-1.48,1.79-2.16a1.23,1.23,0,0,0-.35-.91c-.09.05-.11,0-.13,0s0-.14,0-.18l0-.05,0,0c.2-.15.73-.59,2.17-1.86a4.23,4.23,0,0,0,1.64-2.79,1.87,1.87,0,0,0-.42-1.32l-.07-.07.1,0a6.71,6.71,0,0,0,2.78-2.72c.68-1.16-.57-2-.63-2.07l0,0,0-.06c.89-1.65-.25-2.35-.26-2.36l0,0v-.05a12.93,12.93,0,0,0,.08-1.57,3.2,3.2,0,0,0-.5-1.93s0,0-.07,0a3,3,0,0,0-.75.37,3.3,3.3,0,0,1-.32.18,1.21,1.21,0,0,1-.57.21,3.83,3.83,0,0,0-.44.09c-.19,0-.24.17-.3.32a.79.79,0,0,1-.19.31.3.3,0,0,1-.35.08,1.82,1.82,0,0,0-1,.09c-1,.27-1.11,1-1.17,1.74a39.14,39.14,0,0,1-1.38,4.09l0,.09-.08-.05A1.23,1.23,0,0,0,73.36,48.52Z"/><path class="cls-1" d="M72.38,62.89a.29.29,0,0,1-.25-.14c-.16-.2,0-.43.09-.59A20.31,20.31,0,0,1,71,57c-.08-.95-.16-1.76-.23-2.45a9.78,9.78,0,0,1-.12-2.49,5.43,5.43,0,0,0,0-.93c0-1.17.06-2,.5-2.37a3.94,3.94,0,0,1,2.77-.59,30.57,30.57,0,0,0,1.24-3.69,2,2,0,0,1,1.46-2.08,2.35,2.35,0,0,1,1.15-.09h0a.68.68,0,0,0,.09-.17.79.79,0,0,1,.55-.54,3.54,3.54,0,0,1,.49-.1,1,1,0,0,0,.43-.15l.32-.19a3.12,3.12,0,0,1,.87-.42.47.47,0,0,1,.38.09,3.46,3.46,0,0,1,.66,2.24,12.88,12.88,0,0,1-.07,1.45,2,2,0,0,1,.36,2.51,1.86,1.86,0,0,1,.52,2.41,7.15,7.15,0,0,1-2.63,2.71,2.42,2.42,0,0,1,.3,1.27,4.58,4.58,0,0,1-1.78,3.06c-1,.9-1.6,1.43-2,1.73a1.54,1.54,0,0,1,.28,1c0,.82-.7,1.66-2,2.47C73.19,62.62,72.64,62.89,72.38,62.89Zm1-14.13a3.8,3.8,0,0,0-1.84.53c-.23.18-.24,1.29-.25,1.89a5,5,0,0,1-.07,1.07,10.45,10.45,0,0,0,.13,2.27c.07.7.16,1.52.23,2.47a20.36,20.36,0,0,0,1.27,5.07c.29-.16.74-.42,1.45-.88,1.36-.88,1.67-1.56,1.69-2a.94.94,0,0,0-.19-.62c-.09,0-.15,0-.22-.11s-.2-.24,0-.5a.35.35,0,0,1,.19-.1c.22-.17.76-.62,2.08-1.8a4,4,0,0,0,1.57-2.6,1.64,1.64,0,0,0-.36-1.17A.32.32,0,0,1,79,52a.3.3,0,0,1,.16-.22,6.46,6.46,0,0,0,2.69-2.63c.58-1-.51-1.73-.56-1.76a.3.3,0,0,1-.09-.4C82,45.56,81.08,45,81,45a.31.31,0,0,1-.15-.31A12.67,12.67,0,0,0,81,43.12a3.72,3.72,0,0,0-.37-1.7,3.54,3.54,0,0,0-.6.32l-.32.19a1.68,1.68,0,0,1-.66.23,2.21,2.21,0,0,0-.41.08c-.08,0-.09,0-.15.18a.85.85,0,0,1-.25.4.5.5,0,0,1-.54.14,1.59,1.59,0,0,0-.87.08c-.76.21-.94.71-1,1.54a35.93,35.93,0,0,1-1.4,4.16.31.31,0,0,1-.19.18.32.32,0,0,1-.27,0A1,1,0,0,0,73.37,48.76Zm7.33-7.37h0Z"/><path class="cls-1" d="M65.41,62.83h0a2.08,2.08,0,0,1-1.87-2.19c0-.63,0-1,.23-1.06a1.21,1.21,0,0,0-.33-.38l-.13-.05a1.6,1.6,0,0,1-1.23-1.38,3.15,3.15,0,0,0-.25-1.17,1.49,1.49,0,0,1-.16-1.13.93.93,0,0,1,.63-.55c.86-.28,1.74-1.09,1.74-1.46a11.93,11.93,0,0,0-.58-3.65.25.25,0,0,1-.06-.16,13.19,13.19,0,0,1-.08-2,1.6,1.6,0,0,1,.82-.85.85.85,0,0,1,.64,0,2.51,2.51,0,0,0,.14-.84c0-.45.17-.62.59-.85a.69.69,0,0,0,.17-.2.58.58,0,0,1,.83-.25,1.79,1.79,0,0,1,1,1.22l0,.12a.5.5,0,0,1,.25-.32.73.73,0,0,1,.63.06c.17.09.65.35.9,2.27a7,7,0,0,1-.48,3.1,3.78,3.78,0,0,0-.58,1.85,1,1,0,0,0,.21,0,1.46,1.46,0,0,1,.65-.1c.65.13.62,1.12.5,2.41v.11a.31.31,0,0,1,0,.1,1.43,1.43,0,0,1,1.53.94c.06.2.19.68-5.52,6.46A.31.31,0,0,1,65.41,62.83Zm-1.26-1.91a1.43,1.43,0,0,0,1.15,1.27,53.27,53.27,0,0,0,5.23-5.8.9.9,0,0,0-.77-.45.84.84,0,0,0-.21.43.31.31,0,0,1-.34.24.3.3,0,0,1-.27-.31A11.12,11.12,0,0,1,69,55.18v-.11a5.58,5.58,0,0,0,0-1.74,1.39,1.39,0,0,0-.33.07.7.7,0,0,1-.93-.21c-.33-.56.28-2,.58-2.49a6.63,6.63,0,0,0,.4-2.71c-.17-1.26-.43-1.71-.57-1.78l0,0v.1a.48.48,0,0,1-.47.39h0c-.3,0-.59-.28-.72-.72a1.14,1.14,0,0,0-.71-.83h0l0,0a1.25,1.25,0,0,1-.36.39c-.29.16-.29.16-.29.32s0,1.15-.46,1.42a.53.53,0,0,1-.52,0,.25.25,0,0,0-.18,0,.93.93,0,0,0-.46.44A14.19,14.19,0,0,0,64,49.52a13.15,13.15,0,0,1,.65,3.94c0,.81-1.29,1.76-2.17,2-.2.06-.23.15-.24.18a.81.81,0,0,0,.12.6,3.82,3.82,0,0,1,.33,1.43c0,.52.38.69.82.85l.16.06c.44.18,1.27,1.55,1.1,2a.36.36,0,0,1-.22.25A.65.65,0,0,1,64.15,60.92Z"/><path class="cls-1" d="M39.77,84.78A7.06,7.06,0,0,0,38,86l-.16.14a5.88,5.88,0,0,0-1,.55,8.56,8.56,0,0,1-1.74.9c-.39.08-.8.53-1.28,1s-1,1.14-1.25,1a.29.29,0,0,0-.31,0A5.63,5.63,0,0,0,30.08,92a2.49,2.49,0,0,1-1.36,1.45c-.13.07-.27.14-.41.23a9,9,0,0,0-.77.54.27.27,0,0,0,0-.12,1.17,1.17,0,0,0-.71-.73c-1-.43-1.71-.71-1.72-.71h0a4.86,4.86,0,0,0-1.7-.63.53.53,0,0,1-.41-.27,13.87,13.87,0,0,0,3.32-2.21.38.38,0,0,0,.11-.23.31.31,0,0,0-.09-.22.53.53,0,0,1-.14-.32s0-.1.12-.19a5.5,5.5,0,0,1,1.44-1l.27,0a6.43,6.43,0,0,1,1.28-.15,8,8,0,0,0,2.11-1l-.78.1a.83.83,0,0,1-.49-.1,4.77,4.77,0,0,1-.84.39,7.21,7.21,0,0,0-1.4.16l-.28,0a5.72,5.72,0,0,0-1.71,1.15.9.9,0,0,0-.34.65,1,1,0,0,0,.12.5,13,13,0,0,1-3.18,2l-.31.14a.3.3,0,0,0-.15.38.31.31,0,0,0,.36.19s.05.06.08.09a1.11,1.11,0,0,0,.81.53,4.72,4.72,0,0,1,1.53.57s.73.29,1.74.72a.62.62,0,0,1,.37.36.72.72,0,0,1,0,.46l-.29.26a.31.31,0,0,0,0,.4.29.29,0,0,0,.25.13.32.32,0,0,0,.14,0l.28-.15a.34.34,0,0,0,.12-.12.59.59,0,0,0,.06-.12,10.33,10.33,0,0,1,1.21-.91A3.59,3.59,0,0,1,29,94a3.16,3.16,0,0,0,1.64-1.75,5,5,0,0,1,1.83-1.95c.58.16,1.22-.53,1.84-1.2a3.69,3.69,0,0,1,1-.87,7.3,7.3,0,0,0,1.93-1,7.17,7.17,0,0,1,.86-.49,1,1,0,0,0,.38-.27,9.26,9.26,0,0,1,3-1.8C40.86,84.71,40.32,84.73,39.77,84.78Z"/><path class="cls-1" d="M76.29,33.72a44,44,0,0,0-1.9-7.44.3.3,0,0,0-.39-.19l-1.6.56a.31.31,0,0,0-.2.22,7.07,7.07,0,0,0,.5,2.88c.23.83.49,1.77.66,2.7a28.18,28.18,0,0,1,.33,4.86,4.74,4.74,0,0,0,0,.63c0,.13-.17.51-.31.84a1.14,1.14,0,0,0-.44.7,3,3,0,0,0,.54,1.92c0,.5-.1,1.93-.21,3.43-.14,1.9-.3,4.06-.3,5.32,0,2.18-2,5.88-2.63,6.35a22.14,22.14,0,0,0-5.23,5.66,24.54,24.54,0,0,0-1.29,3.1,1,1,0,0,0-.48-.25,1.85,1.85,0,0,0-1.58.42c-.31.31-.43,1.15-.55,2.6,0,.2,0,.36,0,.45A23.55,23.55,0,0,1,59,71.91a14.09,14.09,0,0,1-2.54,1.73l-1.4-.54A3.64,3.64,0,0,0,53,74.19a3.43,3.43,0,0,0-.12,1.36v.07A24.35,24.35,0,0,1,50,77.54l.36.08a1,1,0,0,1,.45.15c1-.61,2.64-1.67,2.64-2.06v-.18a3.5,3.5,0,0,1,.05-1,4.53,4.53,0,0,1,1.4-.78l1.47.57a.34.34,0,0,0,.26,0,15.7,15.7,0,0,0,2.85-2s2.2-3,2.31-3.71c0-.11,0-.28,0-.49a8,8,0,0,1,.37-2.22,1.26,1.26,0,0,1,1-.25.36.36,0,0,1,.27.2,8.87,8.87,0,0,0-.22,1.13.3.3,0,0,0,.26.31.29.29,0,0,0,.34-.21,43.1,43.1,0,0,1,1.79-4.57A21.76,21.76,0,0,1,70.75,57c.68-.55,2.87-4.39,2.87-6.83,0-1.23.16-3.38.3-5.27.12-1.69.23-3.14.2-3.6a.2.2,0,0,0-.06-.15,2.56,2.56,0,0,1-.49-1.53.53.53,0,0,1,.26-.35A.35.35,0,0,0,74,39.1c.41-1,.43-1.2.37-1.32s0-.25,0-.47a28.9,28.9,0,0,0-.34-5c-.18-.95-.45-1.9-.68-2.75a11.12,11.12,0,0,1-.51-2.4l1.14-.4a44,44,0,0,1,1.76,7,52.16,52.16,0,0,1,.37,8.63v.43c0,2.24-.28,13.54-6.14,16.25A5.64,5.64,0,0,0,68.25,61a2.11,2.11,0,0,0-.18.27,23,23,0,0,0-1.72,3.07,33,33,0,0,1-5.07,6.78l-.24.09A2.72,2.72,0,0,0,60,71.9a.31.31,0,0,0,.42.44l.2-.15a.8.8,0,0,0,0,.26.3.3,0,0,0,.21.29.29.29,0,0,0,.34-.1s1.81-2.39,2.33-3a44.74,44.74,0,0,0,3.21-4.5c.27-.58,1.26-2.46,1.84-3.43l.37-.56,0,0,.37-.32a9.24,9.24,0,0,1,2-1.45,4,4,0,0,0,1.51-1.11l.1-.11a.51.51,0,0,1,.2,0l-3.52,4A13.74,13.74,0,0,0,68,64.81c-.25.51-.49,1-.68,1.34s-.28.5-.46.85a24.37,24.37,0,0,1-2.45,4,11.25,11.25,0,0,1-2.49,1.7l-.11.07a.27.27,0,0,0-.16.25.31.31,0,0,0,.12.27.48.48,0,0,1,.11.09,14.52,14.52,0,0,1-1.64.66.26.26,0,0,0-.11.07A39.41,39.41,0,0,1,55,78.39a1,1,0,0,1,.45.44,39.47,39.47,0,0,0,5-4.23,11.09,11.09,0,0,0,1.72-.72.55.55,0,0,0,.29-.45.56.56,0,0,0-.09-.31,10.68,10.68,0,0,0,2.4-1.68,23.86,23.86,0,0,0,2.56-4.15l.45-.84c.21-.35.45-.85.7-1.37A13.82,13.82,0,0,1,70,62.52L74,58a.31.31,0,0,0,.06-.32.34.34,0,0,0-.26-.19,3.13,3.13,0,0,0-.9,0c3.48-4.23,3.79-12,3.78-14.73,0-.06,0-.18,0-.35A55.16,55.16,0,0,0,76.29,33.72Z"/><path class="cls-1" d="M26.24,95.73a1,1,0,0,1-.47-.11l-.24-.13a1.16,1.16,0,0,0-1-.21c-.4.08-1.47.31-1.74-.78-.08-.31-.26-.36-.28-.36l-.31,0v-.33c0-.05,0-.21-.29-.28a1.23,1.23,0,0,1-1-.88c-.05-.4.2-.75.74-1.06s1-.34,1.34.13a.48.48,0,0,0,.37.24,5.51,5.51,0,0,1,1.72.64c.19.07.64.25,1.71.7a1.35,1.35,0,0,1,.76.78,1.67,1.67,0,0,1-.16,1.21l-.13.13A2.11,2.11,0,0,1,26.24,95.73Zm-1.39-1.25a2,2,0,0,1,1.07.34l.2.12a.93.93,0,0,0,.67-.16.74.74,0,0,0,.06-.51.54.54,0,0,0-.33-.31c-1-.42-1.71-.71-1.74-.72a5,5,0,0,0-1.51-.56,1.23,1.23,0,0,1-.86-.56l-.05-.06s-.1,0-.29.15-.35.27-.35.3a.67.67,0,0,0,.4.23,1.1,1.1,0,0,1,.82.73,1.21,1.21,0,0,1,.62.84c.05.2.1.37.84.22A1.82,1.82,0,0,1,24.85,94.48Z"/><path class="cls-1" d="M38.36,84.9l-.21.12a.19.19,0,0,0,0-.08,4.05,4.05,0,0,1-.71.09,1,1,0,0,1-.24,0c-.54.37-1.1.71-1.68,1.06l-1.37.84A17.8,17.8,0,0,0,31.66,89c-.37.34-.74.69-1.15,1l-.29.27a3.64,3.64,0,0,1-.73.59,4.91,4.91,0,0,1-1,.53.44.44,0,0,0-.3.28,1.75,1.75,0,0,0-.63.43l-.2.17a5.08,5.08,0,0,1-.76.42l-.44.23a.31.31,0,0,0,.15.58.23.23,0,0,0,.14,0l.42-.21a6.71,6.71,0,0,0,.85-.48,2.75,2.75,0,0,0,.26-.22,1.18,1.18,0,0,1,.42-.3.48.48,0,0,0,.34-.3,6.38,6.38,0,0,0,1.12-.55,4.64,4.64,0,0,0,.83-.68l.06,0a8.76,8.76,0,0,1-2.82,2.16.31.31,0,0,0-.15.41.31.31,0,0,0,.41.15A9.43,9.43,0,0,0,31.29,91a.3.3,0,0,0,0-.43.28.28,0,0,0-.3-.06c.39-.34.76-.69,1.13-1a17.84,17.84,0,0,1,2.41-2l1.35-.83.46-.27a20.45,20.45,0,0,1-1.79,1.18.29.29,0,0,0-.14.17c-.14.43-.51.65-.93.91a3.56,3.56,0,0,0-.89.71.63.63,0,0,0-.09.24.32.32,0,0,0,0,.42.31.31,0,0,0,.44,0,.59.59,0,0,0,.16-.33,3.34,3.34,0,0,1,.69-.51A2.54,2.54,0,0,0,34.91,88c.73-.42,1.41-.92,2.08-1.4a15.94,15.94,0,0,1,3.15-1.93.3.3,0,0,0,.17-.38C39.64,84.47,39,84.74,38.36,84.9Z"/><path class="cls-1" d="M29.6,90a.32.32,0,0,0-.43-.09l-4,2.67a.32.32,0,0,0-.09.43.31.31,0,0,0,.26.14.34.34,0,0,0,.17,0l4-2.67A.31.31,0,0,0,29.6,90Z"/><path class="cls-1" d="M55.47,75.38l.13,0a.29.29,0,0,0,.28-.18,2.52,2.52,0,0,0,.12-.29,1.5,1.5,0,0,1,.22-.46.7.7,0,0,0,.1-.7.3.3,0,0,0-.09-.13.4.4,0,0,0-.35-.09h-.07a.31.31,0,0,0-.31.31.32.32,0,0,0,.19.29,2.23,2.23,0,0,0-.27.57,1.33,1.33,0,0,1-.1.24A.31.31,0,0,0,55.47,75.38Z"/><path class="cls-1" d="M25.57,90.39a2.11,2.11,0,0,1,.61-.55c.28-.07.66-.17.88-.25a2.72,2.72,0,0,1,.54-.11c.47,0,.79-.14,1.07-.87a.31.31,0,1,0-.58-.22c-.16.43-.23.44-.56.48a3.2,3.2,0,0,0-.67.13c-.22.08-.62.19-.84.24h0a2.3,2.3,0,0,0-.88.73c-.11.12-.22.25-.33.35a14,14,0,0,1-1.65,1.21l-.15.1a.31.31,0,0,0-.09.43.31.31,0,0,0,.26.14.34.34,0,0,0,.17,0l.15-.1a17,17,0,0,0,1.73-1.27C25.32,90.67,25.45,90.53,25.57,90.39Z"/><path class="cls-1" d="M60.43,74a2.89,2.89,0,0,1-.5,0,2.16,2.16,0,0,0-1,0,8.7,8.7,0,0,0-1.43.57l-.28.14a.31.31,0,0,0-.16.41.32.32,0,0,0,.41.15l.3-.14L57.9,75a.41.41,0,0,1-.07.11,1.92,1.92,0,0,1-.54.67,5.54,5.54,0,0,0-.58.45l-.09.08a.3.3,0,0,0-.48-.26A5.35,5.35,0,0,1,55,76.6l-.76.28a4.77,4.77,0,0,0-1.34,1,5.6,5.6,0,0,1,.79.12,3,3,0,0,1,.79-.53l.07,0a5.22,5.22,0,0,0-.71.57s0,0,0,0c.25,0,.5.11.74.18a4.21,4.21,0,0,1,.72-.47l.3-.12-.46.22a1.13,1.13,0,0,0-.45.41c.22.06.43.13.64.21,0,0,0,0,.06,0,.43-.21.93-.46,1.42-.75a8.29,8.29,0,0,0,1.7-1.47l.09-.1a9.1,9.1,0,0,0,.76-.87l.16-.19a.31.31,0,0,0,0-.44.2.2,0,0,0-.08,0,2.24,2.24,0,0,1,.51,0,3.12,3.12,0,0,0,.62.05.31.31,0,0,0,.29-.33A.29.29,0,0,0,60.43,74ZM59,74.61l-.16.2-.24.3a.32.32,0,0,0-.1-.33l.52-.19Z"/><path class="cls-1" d="M72.52,56.42a.32.32,0,0,0-.41.15,1.31,1.31,0,0,1-.37.52A21.16,21.16,0,0,1,70,58.32a15.4,15.4,0,0,0-2.14,1.57,3.13,3.13,0,0,0-1.2,2,.31.31,0,0,0,.22.37H67a.31.31,0,0,0,.3-.23,2.53,2.53,0,0,1,1-1.64,16.82,16.82,0,0,1,2.06-1.52c.59-.39,1.2-.79,1.79-1.26a2.14,2.14,0,0,0,.55-.74A.31.31,0,0,0,72.52,56.42Z"/><path class="cls-1" d="M75.93,40.8a.32.32,0,0,0-.43-.09,1.34,1.34,0,0,1-.85.26.38.38,0,0,0-.25.1.42.42,0,0,1-.28-.11.31.31,0,1,0-.41.47,1.14,1.14,0,0,0,.79.26.38.38,0,0,0,.25-.1,2.1,2.1,0,0,0,1.08-.36A.31.31,0,0,0,75.93,40.8Z"/><path class="cls-1" d="M63.6,65.8a2.1,2.1,0,0,0-.66,0l-.36,0a.41.41,0,0,0,.05-.09.31.31,0,0,0-.18-.4.45.45,0,0,0-.42.06.38.38,0,0,0-.16.12.37.37,0,0,0-.07.27.5.5,0,0,0,.26.54,1.73,1.73,0,0,0,.94.09,1,1,0,0,1,.62.06.32.32,0,0,0,.16,0,.26.26,0,0,0,.15,0,.32.32,0,0,0,.16-.27v-.14A.32.32,0,0,0,63.6,65.8Z"/><path class="cls-1" d="M28.64,92h0Z"/><path class="cls-1" d="M28.21,91.67h0Z"/><path class="cls-1" d="M62.11,65.36h0Z"/><path class="cls-1" d="M34.8,77.06l.42,0c-1.87-.82-3.45-1.66-3.64-2a8.06,8.06,0,0,0-2.7-3.16,1.65,1.65,0,0,0-2-.24,1.63,1.63,0,0,0-.67,1.59.77.77,0,0,0,.07.17,21.13,21.13,0,0,1-8-7.82c.36-1.45-.58-4.43-.62-4.56l-.09-.28-.28.07a1.27,1.27,0,0,0-.52.3c-.11-.28-.63-1-3.1-3.27l-.11-.09h-.14c-.72.09-1.17.36-1.31.8-.29.87.81,2,1.09,2.29.78,1.91,1.61,3,2.47,3.4l.08,0a3.53,3.53,0,0,0-.14,1l0,.09a8.64,8.64,0,0,0,2.26,3.75l.09.08h.11a1.32,1.32,0,0,1,1.31.74,1.16,1.16,0,0,1,0,1.08,2.63,2.63,0,0,1-1,.77l-.39.17.27.32c1.94,2.3,5.25,4.51,8.64,6.32a1,1,0,0,1,.5-.42,31.79,31.79,0,0,1-8.41-6,3,3,0,0,0,.9-.78,1.76,1.76,0,0,0,0-1.73,2,2,0,0,0-1.74-1.08,8.52,8.52,0,0,1-2-3.35,4.19,4.19,0,0,1,.12-.94l.14,0,1.17-.53a4.21,4.21,0,0,1,0,1.75l0,.13.06.11a21.34,21.34,0,0,0,10.75,9.27l.25-.56a5.62,5.62,0,0,1-1.87-1.39,1.05,1.05,0,0,1,.42-.93c.4-.27.91,0,1.26.23A7.54,7.54,0,0,1,31,75.34c.25.5,1.55,1.24,3.1,2A.73.73,0,0,1,34.8,77.06ZM16.21,63.77a.88.88,0,0,1-.28-.06c-.4-.16-1.21-.78-2.15-3.12l-.08-.11c-.38-.36-1.12-1.25-1-1.7.07-.21.38-.31.67-.36a24.4,24.4,0,0,1,2.82,2.87Zm.18,0h-.08l.5-1.47a1.75,1.75,0,0,1,.4-.67,16.23,16.23,0,0,1,.47,2.14Z"/><path class="cls-1" d="M60.08,91.07a48.7,48.7,0,0,1-7.14-4.37l-.24-.21a.69.69,0,0,1-.32,0L52,86.4h-.15c-.14,0-.28-.06-.41-.09.47.34.86.63,1.13.87a43,43,0,0,0,6.59,4.1l-.11.2c-.11.22-.18.34-.4.38a5.18,5.18,0,0,0-1.65.6s-.73.29-1.74.73c-.36.15-.54.37-.53.63v0l-.36-.21a2.89,2.89,0,0,0-.73-.3,1.5,1.5,0,0,1-1.17-1C51.84,91,50,89.67,49,89a4.77,4.77,0,0,1-1-1,2.57,2.57,0,0,0-1.34-1.1,16.68,16.68,0,0,1-1.82-.43,6.7,6.7,0,0,1-.76-.49l-1-.66c0,.08-.1.16-.14.24a.83.83,0,0,1-.23.26c.39.25.74.48,1,.67a5.47,5.47,0,0,0,.92.57,18.52,18.52,0,0,0,1.91.45c.3.06.62.46,1,.88a5.35,5.35,0,0,0,1.11,1.12c.78.5,2.67,1.81,3.22,3a2.08,2.08,0,0,0,1.55,1.36,2,2,0,0,1,.59.24l1.85,1.1a.81.81,0,0,0,.41.22l.22.06,0,0a3.37,3.37,0,0,1,.46-.31l-.47-.28-.23-.14a.47.47,0,0,1-.06-.27l0-.24L56,94.2a2.51,2.51,0,0,1-.68-.38.45.45,0,0,1,.14-.07c1-.44,1.72-.73,1.76-.75a5,5,0,0,1,1.48-.55,1.12,1.12,0,0,0,.85-.7l.09-.17a.45.45,0,0,1,.16,0,.89.89,0,0,1,.17.09l.29-.55Z"/><path class="cls-1" d="M56.57,95.54a.86.86,0,0,1-.3-.05.92.92,0,0,1-.66-.79c-.36-.16-.9-.47-.91-.89,0-.26.17-.48.53-.63,1-.44,1.74-.73,1.74-.73h0a5.18,5.18,0,0,1,1.65-.6c.22,0,.29-.16.4-.38a.82.82,0,0,1,.47-.48,1,1,0,0,1,.79.18c.69.39.79.8.76,1.08a1,1,0,0,1-.84.78c-.38.1-.5.63-.5.64l-.07.36-.34-.13a.62.62,0,0,0-.4,0,.14.14,0,0,0-.07.11c-.12.48-.33,1.29-1.36,1.08-.17,0-.18,0-.28.12A.71.71,0,0,1,56.57,95.54Zm-.35-1s0,.31.22.38.15,0,.24-.09a.81.81,0,0,1,.9-.36c.4.09.49,0,.64-.62a.75.75,0,0,1,.39-.51,1,1,0,0,1,.59-.08,1.32,1.32,0,0,1,.85-.81c.22-.05.36-.17.37-.26s-.09-.27-.44-.46a.81.81,0,0,0-.32-.13l-.09.17a1.12,1.12,0,0,1-.85.7,5,5,0,0,0-1.48.55s-.77.31-1.76.75a.45.45,0,0,0-.14.07,2.51,2.51,0,0,0,.68.38l.23.08Z"/><path class="cls-1" d="M16.53,62.91a2.28,2.28,0,0,1-.67-.92,4.67,4.67,0,0,0-.72-1.07,2.14,2.14,0,0,0-1.69-.52.31.31,0,0,0-.27.35.32.32,0,0,0,.35.26,1.59,1.59,0,0,1,1.18.35,4,4,0,0,1,.6.92,2.6,2.6,0,0,0,.94,1.18.25.25,0,0,0,.14,0,.31.31,0,0,0,.14-.59Z"/><path class="cls-1" d="M27,74.05a2.68,2.68,0,0,0,1.21,0,3.48,3.48,0,0,1,.38-.07.31.31,0,0,0,.22.34c.06,0,.12.1.19.19a.93.93,0,0,0,.72.41h.08a.31.31,0,0,0-.06-.62c-.08,0-.12,0-.26-.18a1.06,1.06,0,0,0-.4-.35,2.57,2.57,0,0,0-.1-1.65.32.32,0,0,0-.38-.21.31.31,0,0,0-.21.39,3.73,3.73,0,0,1,.18,1.07,4.64,4.64,0,0,0-.48.07,2.11,2.11,0,0,1-.93.06.31.31,0,0,0-.38.22A.32.32,0,0,0,27,74.05Z"/><path class="cls-1" d="M17.87,66.06l.25-.75a.3.3,0,0,0-.19-.39.31.31,0,0,0-.39.19l-.29.86a.25.25,0,0,0,0,.12h0a.64.64,0,0,0,0,.07,6.83,6.83,0,0,0,1.38,2.15.31.31,0,0,0,.44,0,.31.31,0,0,0,0-.44A6.11,6.11,0,0,1,17.87,66.06Z"/><path class="cls-1" d="M58.27,92l-2.34-1.44a.31.31,0,0,0-.32.53l2.33,1.44a.33.33,0,0,0,.17,0,.31.31,0,0,0,.26-.14A.32.32,0,0,0,58.27,92Z"/><path class="cls-1" d="M56.39,92.82a1.13,1.13,0,0,1-.31-.21l-.21-.17a2.38,2.38,0,0,0-1.23-.38c-.54-.07-.75-.12-.85-.42a5.55,5.55,0,0,0-2.91-2.74c-.35-.2-.72-.4-1.06-.62a2.33,2.33,0,0,1-.52-.52,2.76,2.76,0,0,0-.72-.68A12.7,12.7,0,0,0,47,86.36a8.28,8.28,0,0,1-2-1,.31.31,0,0,0-.38.49,9,9,0,0,0,2.14,1.13,10.45,10.45,0,0,1,1.48.69,2.12,2.12,0,0,1,.55.53,3,3,0,0,0,.67.65c.36.23.73.44,1.09.64a5,5,0,0,1,2.63,2.42c.24.68.86.75,1.35.81a2,2,0,0,1,.95.27l.17.14a1.59,1.59,0,0,0,.51.32l.1,0a.31.31,0,0,0,.1-.6Z"/><path class="cls-1" d="M29.65,78l.19,0a.28.28,0,0,0-.14-.16c-2.14-1.16-5-2.88-5.06-2.9A16.15,16.15,0,0,1,20,71.31a.3.3,0,0,0-.43,0,.31.31,0,0,0,0,.44,16.46,16.46,0,0,0,4.76,3.75S27,77.05,29.07,78.2A.83.83,0,0,1,29.65,78Z"/><path class="cls-1" d="M18.62,72.47h-.06a3,3,0,0,1-1.16-.32c-.74-.38-2.61-3.64-3-5a3,3,0,0,1-.09-.32,1.92,1.92,0,0,0-.09-.32l-.08.06-.16.12-1-.62-.26-1.53.5.2a.72.72,0,0,0,.19,0,1.77,1.77,0,0,0-.27-.62,7.75,7.75,0,0,1-.84-1.82,3.39,3.39,0,0,0-.33-.79s-1.77-3-1.77-3.76V57.3l.46.26a.77.77,0,0,0,.54.09.37.37,0,0,0,.14-.27c0-.27-.09-1.38.61-1.73l.25-.12L14,58.35l-.5,0c-.33,0-.73.14-.81.38-.13.41.49,1.24,1,1.7l.08.11c1.08,2.68,2.06,3.17,2.42,3.18a.58.58,0,0,1,.19,0h1.46l-1.33.59-.14,0a4.19,4.19,0,0,0-.12.94,8.44,8.44,0,0,0,2,3.35A2,2,0,0,1,20,69.74a1.76,1.76,0,0,1,0,1.73,3.34,3.34,0,0,1-1.27,1Zm-4.41-6.55a.57.57,0,0,1,.18,0c.31.11.4.47.47.78a2,2,0,0,0,.07.26,15.29,15.29,0,0,0,2.75,4.6,2.77,2.77,0,0,0,.82.26,2.77,2.77,0,0,0,1-.75,1.16,1.16,0,0,0,0-1.08,1.32,1.32,0,0,0-1.31-.74H18l-.09-.08a8.64,8.64,0,0,1-2.26-3.75l0-.09a3.53,3.53,0,0,1,.14-1l-.08,0c-.86-.35-1.69-1.49-2.47-3.4-.28-.27-1.38-1.42-1.09-2.29a1.12,1.12,0,0,1,.84-.7l-1-1.47a2,2,0,0,0-.09.93v.08a1,1,0,0,1-.49.78,1.07,1.07,0,0,1-.52.08,27.06,27.06,0,0,0,1.55,3,4.08,4.08,0,0,1,.39.91,6.6,6.6,0,0,0,.78,1.69c.26.46.53,1,.23,1.36a.58.58,0,0,1-.41.2l.05.29.43.27A.58.58,0,0,1,14.21,65.92Z"/><path class="cls-1" d="M18.57,72.24h0a2.75,2.75,0,0,1-1.06-.3c-.64-.33-2.47-3.44-2.93-4.83a1.38,1.38,0,0,1-.08-.29c-.05-.22-.11-.47-.23-.51s-.17,0-.31.11l0,0L13.13,66,13,65l.13,0c.09,0,.37.11.47,0s.11-.25-.27-.91a7.05,7.05,0,0,1-.82-1.78,3.37,3.37,0,0,0-.35-.82,17.09,17.09,0,0,1-1.74-3.65v-.14l.11.07s.45.25.76.1a.55.55,0,0,0,.27-.47c0-.13-.12-1.23.49-1.53l.06,0,1.56,2.33H13.5c-.57.07-.9.25-1,.54-.24.72,1,1.93,1,1.94l0,0c.92,2.28,1.74,3,2.27,3.24a.9.9,0,0,0,.44.07l.12,0,0,.14s0,0-.1,0c-.22.13-.29.84-.29,1.21a8.56,8.56,0,0,0,2.12,3.54,1.7,1.7,0,0,1,1.63,1,1.51,1.51,0,0,1,0,1.48,3.06,3.06,0,0,1-1.18.9Zm-4.36-6.09h.1c.2.08.26.36.33.63a2.86,2.86,0,0,0,.07.28c.48,1.44,2.3,4.45,2.86,4.73a2.48,2.48,0,0,0,1,.28,3,3,0,0,0,1.11-.84,1.4,1.4,0,0,0,0-1.33A1.59,1.59,0,0,0,18.12,69h-.05a8.85,8.85,0,0,1-2.19-3.65v0a2.72,2.72,0,0,1,.24-1.21,1.73,1.73,0,0,1-.33-.08c-.55-.23-1.41-1-2.35-3.32-.15-.14-1.33-1.3-1.07-2.09.1-.33.44-.53,1-.62L12,56c-.46.31-.34,1.34-.34,1.35h0a.74.74,0,0,1-.36.6,1,1,0,0,1-.77,0,20.3,20.3,0,0,0,1.7,3.44,3.55,3.55,0,0,1,.37.86,7.07,7.07,0,0,0,.8,1.74c.32.56.41.91.25,1.09s-.36.12-.51.09l.12.69.64.4A.53.53,0,0,1,14.21,66.15Z"/><path class="cls-1" d="M10,55.8a.32.32,0,0,1-.28-.17c-.08-.16-1.9-3.82-2.42-5.12a2.51,2.51,0,0,1-1-.78c-.33-.48,0-1.43.08-1.78A39.26,39.26,0,0,1,5.06,42.1c-.47-.17-1.45-.63-1.45-1.38a.32.32,0,0,1,.17-.28c.31-.15.8-.48.87-.7a.3.3,0,0,1,.22-.2.34.34,0,0,1,.29.08s.14.11.21.09.19-.17.29-.64c0-.2.08-.46.13-.75a32.93,32.93,0,0,1,1.38-5.79l-.48-.46a.29.29,0,0,1-.09-.28L6.74,31a.38.38,0,0,1,.14-.21.37.37,0,0,1,.25,0l.3.09c.07-.17.14-.4.22-.65A15.25,15.25,0,0,1,8.9,27.11l-.3-.39a.3.3,0,0,1,.05-.43h0A3.93,3.93,0,0,0,9.6,25.2a88.19,88.19,0,0,1,5.82-8.15l1.15-1.39.26-.45,0-.05c.38-.42.55-.61.8-.4s.25.22-.6,1.27c-2.36,4-5.65,9.75-6,10.77a1.41,1.41,0,0,1-.51,1.52c-.19.44-1,2.36-1.42,3.23l.68.21a.3.3,0,0,1,.2.38l-.29,1v0a.39.39,0,0,1-.06.11.41.41,0,0,1-.11.07h0A2.48,2.48,0,0,0,8,35a30.34,30.34,0,0,0-.43,5.41v0a.43.43,0,0,1,0,.05c0,.08.09.23.24.36a.39.39,0,0,1,.2,0,.38.38,0,0,1,.14.47.3.3,0,0,1-.19.19.41.41,0,0,1-.16,0c-.06.06-.16.17-.29.33-.38.45,0,3.14.62,5.42a3.07,3.07,0,0,1,.86,1,1.5,1.5,0,0,1-.08,1.37,18.2,18.2,0,0,0,1.82,3.52.34.34,0,0,1,0,.22c-.15.88-.43,2-.44,2a.32.32,0,0,1-.27.23ZM4.27,40.87a2.42,2.42,0,0,0,1.2.72.31.31,0,0,1,.21.34A31.93,31.93,0,0,0,7,47.87a.34.34,0,0,1,0,.2,2.28,2.28,0,0,0-.18,1.32,2,2,0,0,0,.88.59.37.37,0,0,1,.18.19c.31.83,1.46,3.19,2.07,4.42.07-.33.15-.71.21-1.06-.42-.7-1.86-3.1-1.86-3.82a.3.3,0,0,1,.06-.18.94.94,0,0,0,.1-.85,2.73,2.73,0,0,0-.76-.89.3.3,0,0,1-.12-.17c-.23-.85-1.31-5.15-.52-6.08l.25-.3A.91.91,0,0,1,7,40.38a29,29,0,0,1,.45-5.55,3.13,3.13,0,0,1,1.77-2l.17-.59L8.61,32h0L8.49,32a.28.28,0,0,1-.08-.11.22.22,0,0,1,0-.14.18.18,0,0,1,0-.1v0C8.71,31,10,28,10,28a.28.28,0,0,1,.12-.14.82.82,0,0,0,.3-1,.37.37,0,0,1,0-.18,82.79,82.79,0,0,1,4.07-7.53c-2.33,3.06-4.36,6.29-4.39,6.33a4.58,4.58,0,0,1-.86,1.05l.26.33,0,.05a.5.5,0,0,1,0,.13.35.35,0,0,1,0,.13s0,0,0,.05a13.59,13.59,0,0,0-1.31,3.12,8,8,0,0,1-.34,1l0,.07a.26.26,0,0,1-.11.07.28.28,0,0,1-.13,0H7.52l-.23-.07-.06.29.52.48,0,.06a.26.26,0,0,1,0,.12.23.23,0,0,1,0,.14.14.14,0,0,1,0,.06A29.64,29.64,0,0,0,6.4,38.43c-.05.29-.1.55-.14.76-.13.64-.36,1-.72,1.12a.76.76,0,0,1-.5,0A2.93,2.93,0,0,1,4.27,40.87Z"/><path class="cls-1" d="M13.48,66.87A3.29,3.29,0,0,1,11,66.08c-.46-.24-1.62-1.34-5.42-5.44C0,54.61,0,48.28,0,44.89v-.25c0-2,.25-2.51.62-2.69s.79.13,1.14.41l.18.14c.72.58,2,3.44,2.22,4.09.72.43,1.1,1.44,1.61,2.82a25.64,25.64,0,0,0,1.46,3.32A60.8,60.8,0,0,1,11.18,61a13.32,13.32,0,0,0,2.11,3.83.29.29,0,0,1,.06.28.48.48,0,0,0,0,.39,1.92,1.92,0,0,0,1,.67.3.3,0,0,1,.22.32.29.29,0,0,1-.27.28A7.54,7.54,0,0,1,13.48,66.87Zm-2.29-1.38a.27.27,0,0,1,.24.14,2.37,2.37,0,0,0,1.75.61,1.44,1.44,0,0,1-.33-.4,1.1,1.1,0,0,1-.13-.69,13.87,13.87,0,0,1-2.13-3.91A57.85,57.85,0,0,0,6.69,53a24.76,24.76,0,0,1-1.49-3.4c-.48-1.26-.85-2.26-1.42-2.54a.33.33,0,0,1-.15-.16,16.8,16.8,0,0,0-2.08-4l-.18-.14a1.54,1.54,0,0,0-.49-.33h0s-.25.24-.25,2.13v.25c0,3.31,0,9.48,5.42,15.33A63.32,63.32,0,0,0,11.19,65.49Z"/><path class="cls-1" d="M13.46,66.64a2.94,2.94,0,0,1-2.31-.74c-.18,0-1-.65-5.39-5.41C.22,54.52.23,48.25.23,44.89v-.25c0-2,.26-2.37.49-2.48s.57.12.9.38l.17.14c.72.57,2,3.73,2.19,4.07.68.37,1.06,1.37,1.58,2.74A24.73,24.73,0,0,0,7,52.84,58.77,58.77,0,0,1,11,61.12,13.63,13.63,0,0,0,13.11,65l0,0v0a.71.71,0,0,0,.06.57,2.23,2.23,0,0,0,1.18.77v.15A7.54,7.54,0,0,1,13.46,66.64Zm-2.22-.88s.59.86,2.76.7a2,2,0,0,1-.95-.73.86.86,0,0,1-.08-.65,13.38,13.38,0,0,1-2.16-3.91A57.67,57.67,0,0,0,6.9,52.92a23.83,23.83,0,0,1-1.49-3.37c-.51-1.36-.88-2.35-1.53-2.67h0v0s-1.44-3.47-2.15-4l-.18-.14c-.27-.22-.55-.45-.73-.36s-.4.91-.4,2.34v.25c0,3.34,0,9.57,5.48,15.49,4.52,4.88,5.2,5.34,5.3,5.37s0,0-.05,0,0,0,0,0Z"/><path class="cls-1" d="M16.94,55.77l-.07-8.65.22-.22c1.21-1.29,2.14-2.09,2.77-1.86.19.07.43.27.45.82a26.32,26.32,0,0,1-.74,5.66A16.61,16.61,0,0,1,17.49,55Zm.55-8.4.06,6.51A11.66,11.66,0,0,0,19,51.38a25.48,25.48,0,0,0,.72-5.49.52.52,0,0,0-.06-.28c-.08,0-.49,0-2.09,1.71Z"/><path class="cls-1" d="M13.93,19.54l.27-.92c0-.13.94-3.11,5.28-8,4.55-5.08,9.12-9,11.1-9.52A19.57,19.57,0,0,1,35.32.29a1.48,1.48,0,0,1,1.24,1.2c.06.32.08,1.13-1.07,1.7-1.65.78-13.84,8.19-14.74,8.75a55.08,55.08,0,0,0-5.14,5.93A5.91,5.91,0,0,1,14.68,19ZM35.07.89a23.83,23.83,0,0,0-4.34.86c-1.84.49-6.38,4.42-10.79,9.34a32.45,32.45,0,0,0-4.1,5.51,45,45,0,0,1,4.58-5.19c.93-.58,13.1-8,14.8-8.78.39-.19.83-.52.74-1a.91.91,0,0,0-.7-.71Z"/><path class="cls-1" d="M11,58.32a1.33,1.33,0,0,1-.71-.23c-.61-.34-.6-.76-.59-1.59v-.43a32.27,32.27,0,0,1,1.19-5.6l0-.19c.53-2,3.86-6.16,4.45-6.61l.6-.5c1.41-1.19,2.53-2.07,3.15-1.72.43.24.32.85.29,1A18.49,18.49,0,0,1,18,47.87a31.5,31.5,0,0,1-4.34,6.19,4.36,4.36,0,0,0-.82,1.22,3.72,3.72,0,0,1-.56.87,1.93,1.93,0,0,0-.32.93,2.62,2.62,0,0,1-.29.92A.74.74,0,0,1,11,58.32Zm-.39-.75c.07,0,.42.22.52.08a2.16,2.16,0,0,0,.19-.68,2.41,2.41,0,0,1,.49-1.26,3.22,3.22,0,0,0,.45-.72,5,5,0,0,1,.93-1.37,31,31,0,0,0,4.21-6,17.92,17.92,0,0,0,1.42-5.22c.06-.34,0-.42,0-.42-.33-.1-1.92,1.23-2.43,1.66l-.63.52c-.53.41-3.75,4.48-4.22,6.28l-.06.19a32.4,32.4,0,0,0-1.16,5.44v.43c0,.84,0,.9.29,1.06Z"/><path class="cls-1" d="M11,58.09a1.28,1.28,0,0,1-.6-.2c-.49-.27-.49-.56-.48-1.39v-.43a32,32,0,0,1,1.18-5.54l.05-.19c.51-1.91,3.81-6.06,4.37-6.49l.61-.5c1.24-1.05,2.4-2,2.89-1.7.19.11.24.38.17.81a18.15,18.15,0,0,1-1.45,5.32,30.85,30.85,0,0,1-4.29,6.12,4.68,4.68,0,0,0-.86,1.27,3.54,3.54,0,0,1-.51.81A2,2,0,0,0,11.7,57a2.47,2.47,0,0,1-.25.83A.5.5,0,0,1,11,58.09Zm7.8-16.34c-.55,0-1.85,1.1-2.57,1.72-.26.21-.47.4-.62.5-.55.43-3.81,4.53-4.31,6.41l-.05.19a32.67,32.67,0,0,0-1.17,5.5c0,.16,0,.3,0,.43,0,.81,0,1,.4,1.26h0s.59.37.83,0a2.2,2.2,0,0,0,.23-.77A2.15,2.15,0,0,1,12,55.87a3,3,0,0,0,.48-.77,5.11,5.11,0,0,1,.89-1.32,30.94,30.94,0,0,0,4.26-6.06,18.28,18.28,0,0,0,1.44-5.28c0-.25.06-.56-.1-.65A.21.21,0,0,0,18.81,41.75Z"/><path class="cls-1" d="M16.16,61.16a.3.3,0,0,1-.25-.14A4.84,4.84,0,0,0,15,60.1a17.57,17.57,0,0,1-1.72-1.73l-.06-.06a.33.33,0,0,1-.08-.25,38,38,0,0,0,.21-6.66A18.72,18.72,0,0,1,14.74,44c.11-.29.19-.53.25-.71a21.23,21.23,0,0,1,1-2.44c.06-.11.49-.8,1.09-.73.37,0,.66.37.85,1a38.69,38.69,0,0,1,.73,8.23,62.91,62.91,0,0,1-1.1,8.28,10.27,10.27,0,0,0-.27,1.2c-.17,1-.34,1.94-1,2.29A.26.26,0,0,1,16.16,61.16ZM13.81,58a14.07,14.07,0,0,0,1.6,1.6,4.53,4.53,0,0,1,.79.79,5.38,5.38,0,0,0,.47-1.67A11,11,0,0,1,17,57.44,62.06,62.06,0,0,0,18,49.32a38,38,0,0,0-.69-8c-.14-.41-.28-.54-.35-.55s-.36.23-.47.41h0a22.78,22.78,0,0,0-.93,2.33c-.06.19-.15.44-.25.73A18.21,18.21,0,0,0,14,51.36,40.49,40.49,0,0,1,13.81,58Z"/><path class="cls-1" d="M16.14,61l0-.06a5,5,0,0,0-.92-1,16.87,16.87,0,0,1-1.69-1.7l-.08-.09v0a38.53,38.53,0,0,0,.21-6.71A18.58,18.58,0,0,1,15,44.1c.11-.28.19-.53.25-.71a24.1,24.1,0,0,1,1-2.41s.41-.65.86-.6c.27,0,.5.31.66.81a38.79,38.79,0,0,1,.72,8.15,61.63,61.63,0,0,1-1.09,8.22,8,8,0,0,0-.27,1.23c-.16.9-.33,1.83-.85,2.13Zm-2.57-2.88,0,0a17.39,17.39,0,0,0,1.66,1.68,4,4,0,0,1,.91,1,3.48,3.48,0,0,0,.71-2,9.67,9.67,0,0,1,.28-1.25,61.28,61.28,0,0,0,1.08-8.18,38.81,38.81,0,0,0-.7-8.09c-.15-.44-.33-.68-.54-.71s-.6.36-.7.52a23.2,23.2,0,0,0-.95,2.38c-.06.19-.15.44-.25.73a18.08,18.08,0,0,0-1.33,7.21A39.78,39.78,0,0,1,13.57,58.07Z"/><path class="cls-1" d="M14.29,20.13l.44-1a17,17,0,0,1,3.61-5c.17-.17.51-.54.95-1a48.66,48.66,0,0,1,5.24-5.23C27.1,6,33.2,2.68,35.16,2.37c.52-.08,2.67-.07,3,.82.18.43-.08.91-.77,1.41-3.72,2.69-12.72,9.06-16.2,10.31ZM35.73,3a3.43,3.43,0,0,0-.48,0c-1.85.29-7.9,3.63-10.36,5.4a47.94,47.94,0,0,0-5.15,5.14c-.44.49-.79.87-1,1A19.52,19.52,0,0,0,16,18.11l5-3.77C24.35,13.17,33.35,6.79,37.07,4.1c.5-.37.59-.6.56-.67C37.51,3.14,36.49,3,35.73,3Z"/><path class="cls-1" d="M10.41,28.4h-.27l.1-.12a4.58,4.58,0,0,0,.57-1l0-.07.07,0s.27.06.75-.7a37.8,37.8,0,0,0,2.75-5.7c.42-1.18,2.75-7.24,7.41-11,.39-.31.84-.65,1.18-.47s.47.83.4,2.06a7.49,7.49,0,0,1-2,4.91,38.09,38.09,0,0,0-2.62,4.78l-.2.42C18,22.65,13.42,28.4,10.41,28.4Zm.52-1a5,5,0,0,1-.48.84c2.9-.06,7.44-5.72,8-6.76l.21-.42a35.6,35.6,0,0,1,2.64-4.82,7.3,7.3,0,0,0,2-4.81c.06-1.13-.05-1.77-.32-1.92s-.66.18-1,.46C17.3,13.7,15,19.73,14.56,20.9a36.4,36.4,0,0,1-2.76,5.73c-.43.67-.72.78-.86.78Z"/><path class="cls-1" d="M10.4,28.63h-.12l-.61,0,.39-.47a5.26,5.26,0,0,0,.54-.94l.14-.29L11,27a1.61,1.61,0,0,0,.52-.59,37.19,37.19,0,0,0,2.72-5.65c.42-1.19,2.77-7.3,7.48-11.09.46-.35,1-.74,1.44-.5s.6.92.52,2.28a7.66,7.66,0,0,1-2.11,5.06A42.77,42.77,0,0,0,19,21.24l-.21.42C18.19,22.78,13.51,28.63,10.4,28.63Zm.68-1-.17.34c2.7-.58,6.74-5.48,7.29-6.58l.21-.41a32.59,32.59,0,0,1,2.69-4.89A7.07,7.07,0,0,0,23,11.43c.08-1.54-.19-1.7-.2-1.7s-.57.29-.77.43C17.49,13.84,15.2,19.82,14.78,21A38,38,0,0,1,12,26.76C11.62,27.35,11.31,27.56,11.08,27.62Z"/><path class="cls-1" d="M8.82,26.89l-.15-.11a1.27,1.27,0,0,1-.54-1.44c0-.11.11-.39.21-.78A60.22,60.22,0,0,1,11,16.47C12.51,13,16.15,6.86,18.67,5c.51-.4,1.29-1,1.84-.67.39.25.46.84.23,1.92a26.41,26.41,0,0,1-4.18,9c-1.2,1.67-2.59,3.48-3.6,4.8-.7.9-1.24,1.61-1.4,1.85C11,22.79,9.83,25,9.88,25.78v.09l0,.08A2.56,2.56,0,0,1,9,26.8ZM20.13,4.82c-.1,0-.37.09-1,.61l-.05,0c-2.35,1.75-6,7.73-7.52,11.25a61.65,61.65,0,0,0-2.58,8c-.11.4-.18.69-.22.82a.56.56,0,0,0,.15.6,2,2,0,0,0,.39-.43c0-1.25,1.76-4.11,1.78-4.14.17-.27.7-.95,1.43-1.9,1-1.32,2.4-3.12,3.59-4.78A25.83,25.83,0,0,0,20.14,6.1c.23-1.09,0-1.27,0-1.27Z"/><path class="cls-1" d="M8.83,26.62l0,0a1.06,1.06,0,0,1-.45-1.17c0-.13.11-.41.22-.8a60,60,0,0,1,2.6-8C12.71,13.08,16.32,7,18.81,5.16l0,0c.39-.31,1.12-.88,1.53-.62s.34.73.13,1.67a26,26,0,0,1-4.14,8.94c-1.19,1.66-2.58,3.47-3.6,4.78-.69.91-1.24,1.63-1.4,1.87-.38.62-1.78,3.13-1.72,4v.05a2.36,2.36,0,0,1-.76.76Zm11.31-22a2.86,2.86,0,0,0-1.2.66l0,0a22,22,0,0,0-4.2,5.15,50.18,50.18,0,0,0-3.39,6.19,59.6,59.6,0,0,0-2.59,8c-.11.39-.18.68-.22.81a.88.88,0,0,0,.35,1,2.06,2.06,0,0,0,.64-.66c0-1.1,1.73-4.06,1.75-4.09.16-.25.69-.94,1.41-1.88,1-1.32,2.4-3.12,3.59-4.78a26,26,0,0,0,4.12-8.88c.23-1.07.1-1.42-.06-1.51A.3.3,0,0,0,20.14,4.59Z"/><path class="cls-1" d="M7.8,41.6h0a1.15,1.15,0,0,1-.56-.51.29.29,0,0,1,0-.3,2.94,2.94,0,0,0,.4-1.25c0-.16,0-.34.08-.55a68.25,68.25,0,0,1,3.13-11.06,24.53,24.53,0,0,1,5.65-7.73,1.19,1.19,0,0,1,1.26-.33c.39.19.58.65.56,1.36a16.51,16.51,0,0,1-2,7.44c-.19.39-.37.78-.54,1.15a52,52,0,0,1-3.41,6.57C11,38.58,8.48,41.6,7.8,41.6Zm0-.67,0,0a21.3,21.3,0,0,0,3.92-4.88,52.29,52.29,0,0,0,3.38-6.49c.17-.39.36-.78.55-1.18a16,16,0,0,0,2-7.18c0-.5-.11-.74-.21-.79s-.32,0-.6.24a23.91,23.91,0,0,0-5.48,7.5A66.72,66.72,0,0,0,8.29,39.1c0,.2-.06.37-.08.52A3.42,3.42,0,0,1,7.83,40.93Zm-.37,0h0Z"/><path class="cls-1" d="M3.92,40.79h0l0,0C3.79,40.7,2.17,39,2.32,33.91c.1-3.41.94-14.94,7.64-20l.13-.1V14c0,.06,0,5.91-.95,9C8,26.65,7.1,30.92,6.36,34.35,5.8,37,5.35,39,5,40l-.15.41v-.28C4.65,40.35,4.26,40.79,3.92,40.79Zm6-26.64c-6.53,5-7.36,16.39-7.46,19.77C2.34,38.58,3.75,40.41,4,40.64c.32,0,.77-.62.93-.84l0-.08c.33-1,.75-3,1.28-5.4C7,30.88,7.88,26.61,9,22.94,9.84,20.16,9.92,15.1,9.93,14.15Z"/><path class="cls-1" d="M13.2,66.23a3,3,0,0,1-2.32-1.66,13.83,13.83,0,0,0-2.81-3.49c-1.69-1.51-4.74-7.24-5.3-8.65-.19-.49-.44-1.15-.69-1.82-.45-1.18-1-2.65-1.17-2.89a.31.31,0,0,1,.51-.36,25.81,25.81,0,0,1,1.24,3c.25.67.49,1.32.69,1.81.56,1.45,3.57,7,5.13,8.42a14.08,14.08,0,0,1,3,3.76,2.47,2.47,0,0,0,1.73,1.23.31.31,0,0,1,0,.62Zm1.67-6.51-.12,0a.32.32,0,0,1-.17-.41c.18-.45.62-5.7.69-7.57s.84-7.12.88-7.35a.31.31,0,0,1,.35-.27.32.32,0,0,1,.26.35c0,.06-.79,5.6-.87,7.3a75.63,75.63,0,0,1-.74,7.78A.3.3,0,0,1,14.87,59.72Zm-4-1.52a.3.3,0,0,1-.3-.29,14.52,14.52,0,0,1,2.95-8.67.32.32,0,0,1,.44-.07.31.31,0,0,1,.06.43,14.13,14.13,0,0,0-2.84,8.27.31.31,0,0,1-.29.33Zm7.45-8.56a.31.31,0,0,1-.13,0,.3.3,0,0,1-.15-.4c.22-.48.71-2,.72-2a.3.3,0,0,1,.39-.19.3.3,0,0,1,.19.39c0,.06-.51,1.54-.74,2.05A.29.29,0,0,1,18.33,49.64ZM3.92,41H3.79l-.1-.1c-.07-.07-1.75-1.88-1.6-7,.1-3.44,1-15.06,7.73-20.17l.5-.37V14c0,.24,0,5.94-1,9.06C8.25,26.71,7.33,31,6.59,34.4,6,37,5.58,39.08,5.23,40a.33.33,0,0,1-.17.18C4.81,40.53,4.36,41,3.92,41ZM9.69,14.64c-6.1,5.13-6.89,16-7,19.28-.12,4.12,1,6,1.33,6.45H4a48.32,48.32,0,0,1,.09-10,53,53,0,0,1,2.69-9.64.31.31,0,0,1,.4-.18.32.32,0,0,1,.18.4,52.78,52.78,0,0,0-2.66,9.52,45.78,45.78,0,0,0-.13,9.35.61.61,0,0,0,.07-.1l0,0c.33-1,.75-2.94,1.28-5.36.74-3.44,1.66-7.71,2.78-11.4A37.13,37.13,0,0,0,9.69,14.64ZM7.9,40.38a.28.28,0,0,1-.19-.07.3.3,0,0,1,0-.43C9.93,37,16,24.84,16,24.72a.32.32,0,0,1,.42-.14.31.31,0,0,1,.13.42c-.25.5-6.13,12.31-8.44,15.26A.3.3,0,0,1,7.9,40.38ZM9,26.29h-.1a.31.31,0,0,1-.2-.39c.09-.26,2.06-6.46,3-8.54,1-2.29,5.12-8.56,5.3-8.83a.31.31,0,0,1,.42-.09.3.3,0,0,1,.09.43c0,.06-4.25,6.49-5.25,8.74-.92,2-2.95,8.42-3,8.48A.3.3,0,0,1,9,26.29Zm7.36-5.36a.32.32,0,0,1-.16,0,.32.32,0,0,1-.11-.42c2.62-4.48,5.36-8.71,5.39-8.76a.31.31,0,1,1,.52.34s-2.76,4.26-5.37,8.73A.32.32,0,0,1,16.35,20.93Zm7.17-8.78a.28.28,0,0,1-.24-.13.3.3,0,0,1,.06-.43A85.79,85.79,0,0,1,33.41,4.9l.07,0a.3.3,0,0,1,.41.13.31.31,0,0,1-.13.42l-.06,0a84.51,84.51,0,0,0-10,6.64A.33.33,0,0,1,23.52,12.15Zm-3.17-.9a.28.28,0,0,1-.22-.1.31.31,0,0,1,0-.44c.36-.32,8.85-8,11.88-9.46a.32.32,0,0,1,.41.15.3.3,0,0,1-.15.41c-2.95,1.41-11.64,9.28-11.73,9.36A.28.28,0,0,1,20.35,11.25Z"/><path class="cls-1" d="M64.69,11.85c0-.14-.11-.28-.17-.43A4.47,4.47,0,0,0,62.6,9.2a3.45,3.45,0,0,0-2.82,0c-1.53.59-2.54.68-3,.25a.94.94,0,0,1-.23-.88c-2.19.2-3.62-.12-4.25-1a1.91,1.91,0,0,1-.25-1.71c-2.49.21-3.94-.06-4.32-.79A1.3,1.3,0,0,1,48,3.82c-.44-.1-1.88-.53-1.82-1.85a1.06,1.06,0,0,1,.39-.78A3.88,3.88,0,0,1,49,.77a.32.32,0,0,1,0-.31c.15-.27.76-.25,1.61-.19l.19,0a4.09,4.09,0,0,1,1.6.67c-.08-.07-.12-.13-.09-.2s.16-.11,1.6,0l.23,0A5.53,5.53,0,0,1,58.45,4c.36.78.63,1,1,1,.08,0,.2,0,.24,0s0-.28-.09-.48a1.5,1.5,0,0,0-.21-.24c-.15-.15-.28-.29-.24-.46s.24-.26.64-.37c.92-.23,1.44.5,1.83,1a2.81,2.81,0,0,0,.27.36c.37.45,2.13,5,2.72,6.49a2.68,2.68,0,0,1,.19.51Zm-3.42-3.1a3.06,3.06,0,0,1,1.4.32,3.86,3.86,0,0,1,1.44,1.29A53.9,53.9,0,0,0,61.8,4.9a4.43,4.43,0,0,1-.28-.37c-.38-.53-.85-1.19-1.66-1-.41.11-.51.2-.53.27s.09.19.2.3a2.76,2.76,0,0,1,.23.27c.15.27.19.5.09.64s-.16.16-.4.13c-.45-.09-.76-.3-1.14-1.13A5.34,5.34,0,0,0,54.12.94l-.23,0c-.76-.06-1.24-.1-1.41-.09l0,0a1.24,1.24,0,0,1,.3.41l.1.25-.22-.17A5.1,5.1,0,0,0,50.78.44h-.19c-.54,0-1.35-.1-1.46.1s0,.2.11.29l.12.15-.19,0a4.19,4.19,0,0,0-2.54.37A.86.86,0,0,0,46.3,2c-.07,1.41,1.79,1.71,1.8,1.71l.14,0-.09.11s-.56.67-.28,1.21,1.18,1,4.29.7h.12l-.05.12a1.88,1.88,0,0,0,.19,1.68c.61.81,2,1.1,4.22.88h.11l0,.11a.89.89,0,0,0,.17.84c.28.26,1,.43,2.83-.28A4.32,4.32,0,0,1,61.27,8.75Z"/><path class="cls-1" d="M64.76,12.13a.32.32,0,0,1-.29-.2c0-.14-.11-.28-.16-.43a4.2,4.2,0,0,0-1.82-2.09,3.21,3.21,0,0,0-2.63,0c-1.64.63-2.7.7-3.23.2a1.06,1.06,0,0,1-.33-.8c-2.13.16-3.53-.2-4.19-1.07a2.05,2.05,0,0,1-.35-1.6c-2.43.17-3.82-.13-4.24-.94A1.33,1.33,0,0,1,47.6,4a2.12,2.12,0,0,1-1.69-2A1.25,1.25,0,0,1,46.39,1a3.7,3.7,0,0,1,2.34-.5.52.52,0,0,1,.06-.16C49,0,49.62,0,50.62,0l.19,0a3.51,3.51,0,0,1,1.34.49c.12-.14.39-.12,1.77,0l.23,0a5.73,5.73,0,0,1,4.51,3.31c.34.74.57.85.85.9l-.08-.18a1.54,1.54,0,0,0-.18-.2c-.15-.16-.37-.39-.29-.68s.45-.44.8-.53c1.07-.28,1.68.57,2.08,1.13l.25.34a65.3,65.3,0,0,1,2.77,6.58c.13.28.19.48.2.5a.31.31,0,0,1-.2.38Zm-8.11-4a.32.32,0,0,1,.24.11.33.33,0,0,1,0,.29s-.11.4.11.6.72.4,2.59-.33a3.78,3.78,0,0,1,3.13,0,3.44,3.44,0,0,1,.68.44,39.7,39.7,0,0,0-1.83-4.25c-.09-.1-.18-.24-.29-.38-.44-.62-.8-1-1.42-.9-.15,0-.24.08-.3.1L59.7,4a2,2,0,0,1,.25.31.83.83,0,0,1,.09.89.59.59,0,0,1-.62.23c-.61-.12-1-.45-1.32-1.27a5.11,5.11,0,0,0-4-2.95l-.23,0L53,1.09a.31.31,0,0,1,.05.1.31.31,0,0,1-.1.36.32.32,0,0,1-.37,0A4.5,4.5,0,0,0,50.75.67h-.18a5.79,5.79,0,0,0-1.17,0l0,0a.32.32,0,0,1,0,.35.32.32,0,0,1-.32.15,3.75,3.75,0,0,0-2.35.32.64.64,0,0,0-.25.5c-.06,1.2,1.54,1.46,1.61,1.47a.31.31,0,0,1,.24.2.3.3,0,0,1-.05.3s-.46.57-.26,1,.81.86,4.06.57a.31.31,0,0,1,.28.13.32.32,0,0,1,0,.3,1.64,1.64,0,0,0,.16,1.46c.38.5,1.39,1,4,.78Z"/><path class="cls-1" d="M70.77,22.12h-.09c-.43-.13-4.18-1.25-4.84-1.61A3.16,3.16,0,0,0,64.18,20c-.72,0-1.54,0-1.54-.68l-.09,0a5.12,5.12,0,0,1-.6-.2.82.82,0,0,1-.57-.64,1.16,1.16,0,0,1,.5-1,2,2,0,0,0,0-1.23.69.69,0,0,0,0-.12,2.74,2.74,0,0,0-.41,0l-.59,0-.29,0a.94.94,0,0,1-.86-.38,6,6,0,0,0-.49-.47,1.2,1.2,0,0,1-.43-.91A1.8,1.8,0,0,1,59.67,13l.15-.12a.92.92,0,0,0,.08-.5l-.27-.12a1.81,1.81,0,0,1-.67-.41l-.13-.13a3.38,3.38,0,0,1-.8-1,2,2,0,0,1,.55-2.38,2,2,0,0,1-.38-.65,1.4,1.4,0,0,1,.24-1.44,1,1,0,0,1,.7-.32h0a3.07,3.07,0,0,1,1.71.85c0-.1,0-.25.08-.45a1.28,1.28,0,0,1,.71-1.06c.83-.37,2,.28,2.31.49a20.72,20.72,0,0,1,3.12,3c.51.66,3.38,11,4,13A.3.3,0,0,1,71,22,.29.29,0,0,1,70.77,22.12ZM59.18,6.54h0a.4.4,0,0,0-.26.12.76.76,0,0,0-.15.72,1.12,1.12,0,0,0,.42.65.34.34,0,0,1,.25.25.32.32,0,0,1-.16.32,1.43,1.43,0,0,0-.66,1.86,2.72,2.72,0,0,0,.66.85l.15.15a1.26,1.26,0,0,0,.46.26,1.4,1.4,0,0,1,.55.33.38.38,0,0,1,.08.17c0,.19.08.83-.25,1.12a1.56,1.56,0,0,1-.2.17c-.22.18-.6.48-.61.77a.56.56,0,0,0,.23.42c.25.23.4.39.52.5a.47.47,0,0,0,.44.2h.31l.56,0c.48,0,.94,0,1,.68s.15,1.51-.27,1.81a.64.64,0,0,0-.26.4c0,.05.08.11.2.15a4.25,4.25,0,0,0,.52.17c.26.07.54.15.54.62a3.24,3.24,0,0,0,.93.07,3.81,3.81,0,0,1,2,.62c.43.24,2.81,1,4.17,1.4C69,16.67,67,9.61,66.62,9.11a19.89,19.89,0,0,0-3-2.83,2.29,2.29,0,0,0-1.72-.45c-.07,0-.29.13-.36.59S61.37,7.51,61,7.56a.56.56,0,0,1-.53-.33A2.57,2.57,0,0,0,59.18,6.54Z"/><path class="cls-1" d="M72.61,26.47l0,0a29.18,29.18,0,0,0-2.44-3.6s-3.3-2.35-3.72-3.08a2.92,2.92,0,0,0-.94-.91,3.65,3.65,0,0,1-.57-.45c-.19-.2-.25-.23-.27-.23h0l0,.05a.53.53,0,0,1-.13.13c-.31.2-1.35-.48-1.63-.9a1.87,1.87,0,0,0-.35-.32c-.41-.33-1-.78-.47-1.64s.79-.77,1.08-.77h.05c-.37-.11-.9-.31-1.05-.61a4.07,4.07,0,0,0-.51-.72,3.79,3.79,0,0,1-.51-.73A1.38,1.38,0,0,1,61,11.58a1,1,0,0,1,.65-.5c.73-.21.86-.48.88-.56-.16-.24-1.27-2-.41-2.88s3-.57,4.08.09a1.27,1.27,0,0,1,1.11-.43c.87.16,1.67,1.41,2.37,3.71a1.43,1.43,0,0,0,.38-.67.73.73,0,0,1,.69-.51h0c.33,0,.9.22,1.18,1.68.15.81.22,1.22.23,1.42.25.26.74,1.09.56,3.67-.2,3.29,1,9.48,1,9.54l0,.07Zm-8-8.47c.09,0,.19.07.38.28a6.59,6.59,0,0,0,.55.43,3,3,0,0,1,1,1,25.74,25.74,0,0,0,3.67,3,29.33,29.33,0,0,1,2.45,3.61l.9-.21c-.14-.71-1.21-6.38-1-9.5.15-2.25-.2-3.12-.43-3.44l0,0c-.08,0-.12-.06-.18-.24l0-.16.12.05c0-.21-.09-.59-.23-1.28-.18-1-.56-1.56-1-1.56h0a.57.57,0,0,0-.54.39,1.68,1.68,0,0,1-.53.84l-.09.08,0-.12c-.86-2.88-1.72-3.61-2.29-3.72a1.16,1.16,0,0,0-1,.43l0,.06-.06,0a4.91,4.91,0,0,0-2-.66,2.28,2.28,0,0,0-1.91.5c-.82.88.43,2.7.44,2.72l0,0v0c0,.05,0,.45-1,.73a.83.83,0,0,0-.55.41,1.27,1.27,0,0,0,.08.94,4.37,4.37,0,0,0,.49.7,4.56,4.56,0,0,1,.53.74c.16.33,1,.56,1.32.62l.2,0-.17.11a.69.69,0,0,1-.4.06c-.27,0-.6,0-1,.7s0,1.09.44,1.43a2.24,2.24,0,0,1,.38.37c.3.45,1.26.95,1.41.85a.45.45,0,0,0,.1-.09c.05-.06.09-.11.17-.11Z"/><path class="cls-1" d="M72.64,26.69a.3.3,0,0,1-.26-.15A29.6,29.6,0,0,0,70,23s-3.34-2.37-3.79-3.15a2.69,2.69,0,0,0-.87-.84,4.61,4.61,0,0,1-.6-.47.75.75,0,0,0-.09-.09l-.08.06c-.49.31-1.67-.53-1.95-1a1.68,1.68,0,0,0-.3-.27,1.36,1.36,0,0,1-.53-1.94,2.08,2.08,0,0,1,.61-.68,1.24,1.24,0,0,1-.54-.49,4.38,4.38,0,0,0-.48-.66,4.6,4.6,0,0,1-.55-.79,1.66,1.66,0,0,1-.07-1.25,1.24,1.24,0,0,1,.79-.62,1.77,1.77,0,0,0,.68-.33c-.32-.51-1.2-2.11-.31-3s3-.69,4.22,0a1.42,1.42,0,0,1,1.18-.37c.92.17,1.71,1.3,2.41,3.44a.9.9,0,0,0,.08-.21,1,1,0,0,1,.91-.71c.4,0,1.11.23,1.42,1.88.13.66.21,1.09.24,1.37.31.37.73,1.33.56,3.78-.2,3.26,1,9.41,1,9.47a.3.3,0,0,1-.24.36l-1,.23Zm-8-8.92c.18,0,.34.12.55.35a5,5,0,0,0,.52.4,3.15,3.15,0,0,1,1.05,1,24.88,24.88,0,0,0,3.6,2.94A23.86,23.86,0,0,1,72.79,26l.52-.11a48.14,48.14,0,0,1-1-9.34A6.14,6.14,0,0,0,72,13.4c-.2,0-.28-.29-.32-.4a.31.31,0,0,1,0-.28c0-.21-.09-.56-.2-1.14-.19-1-.53-1.36-.79-1.37a.36.36,0,0,0-.34.2,1.94,1.94,0,0,1-.6,1,.33.33,0,0,1-.29.06.32.32,0,0,1-.21-.21c-.86-2.91-1.68-3.48-2.1-3.56a.9.9,0,0,0-.78.34.3.3,0,0,1-.41.07c-.94-.61-2.93-1-3.65-.19s.45,2.41.46,2.43a.27.27,0,0,1,.06.17c0,.15-.08.64-1.16.95a.6.6,0,0,0-.41.29,1,1,0,0,0,.09.75,3.67,3.67,0,0,0,.45.64,5.29,5.29,0,0,1,.56.78c.08.18.68.41,1.16.51a.3.3,0,0,1,.24.25.3.3,0,0,1-.15.32.91.91,0,0,1-.51.1c-.26,0-.47,0-.84.58s-.09.76.38,1.13a1.91,1.91,0,0,1,.43.42,2.57,2.57,0,0,0,1.13.76l0,0a.4.4,0,0,1,.33-.19Z"/><path class="cls-1" d="M73.78,41l-.38-.37a10.3,10.3,0,0,1-2.54-4.58l0-.09a33.32,33.32,0,0,0-2-4.26,21.84,21.84,0,0,0-3.61-3.32c-.74-.6-1.07-1.15-1-1.63a1.14,1.14,0,0,1,.66-.78c-.79-1.89-1-3.12-.52-3.64a.73.73,0,0,1,.62-.25c0-.2,0-.76-.08-1.64a.92.92,0,0,1,.5-.93,1.7,1.7,0,0,1,1.59.07l.62.42A8.44,8.44,0,0,1,69,21a.44.44,0,0,1,.08.2,1.23,1.23,0,0,1,.94-.66c.33,0,.84.49,1.36,1.32s-.22,2-.5,2.45l-.12.19a2.58,2.58,0,0,0-.45,1.19c0,.21,0,.35.12.4a.52.52,0,0,0,.48-.17,1.15,1.15,0,0,0,.25-.52,1.69,1.69,0,0,1,.24-.56,1.86,1.86,0,0,0,.14-.2c.19-.26.29-.38.69-.2s1,2,1.06,2.16h0a3.3,3.3,0,0,1-.45,2.17A8.17,8.17,0,0,0,72,31.06a1.09,1.09,0,0,1,1.07.38,3,3,0,0,1,.36,2.36,11.63,11.63,0,0,0-.14,2.66.35.35,0,0,1,.35,0c.42.28.49,1.51.44,1.73a5.06,5.06,0,0,1-.75,1.41c-.11.12.08.61.25.91ZM64.91,22.23a.55.55,0,0,0-.44.2c-.28.33-.41,1.22.57,3.55l0,.07-.07,0a1.05,1.05,0,0,0-.64.69c-.06.43.26.93,1,1.49A21.9,21.9,0,0,1,69,31.62a35.1,35.1,0,0,1,2,4.3L71,36a10.26,10.26,0,0,0,2.18,4.18c-.09-.25-.15-.53,0-.66a5,5,0,0,0,.71-1.35c.05-.21,0-1.34-.37-1.56-.06,0-.15-.07-.3,0l-.11.08v-.14a12.92,12.92,0,0,1,.15-2.85,2.81,2.81,0,0,0-.34-2.2,1,1,0,0,0-1-.3l-.12,0,0-.12a8.49,8.49,0,0,1,.89-2.49,3.11,3.11,0,0,0,.42-2,5.81,5.81,0,0,0-1-2.06c-.29-.14-.33-.09-.49.15l-.15.21a1.55,1.55,0,0,0-.22.51A1.16,1.16,0,0,1,71,26a.64.64,0,0,1-.65.2c-.12-.05-.25-.2-.21-.55a2.81,2.81,0,0,1,.47-1.26l.12-.19c.26-.43,1-1.57.5-2.28-.55-.87-1-1.26-1.23-1.26a1.13,1.13,0,0,0-.91.83,2.88,2.88,0,0,1-.1.64l-.15.57v-.59a2,2,0,0,1,.1-.64.73.73,0,0,0-.08-.4,8.76,8.76,0,0,0-1.31-.94l-.64-.42a1.53,1.53,0,0,0-1.42-.07.79.79,0,0,0-.41.79c.08,1.14.08,1.73.08,1.74v.09l-.1,0Z"/><path class="cls-1" d="M73.46,40.88a.31.31,0,0,1-.22-.09,10.47,10.47,0,0,1-2.6-4.68l0-.08a33.89,33.89,0,0,0-2-4.21,23,23,0,0,0-3.57-3.26c-.8-.66-1.17-1.28-1.08-1.85a1.28,1.28,0,0,1,.6-.84c-.77-1.9-.9-3.1-.41-3.69a1,1,0,0,1,.57-.32c0-.28,0-.75-.08-1.4a1.16,1.16,0,0,1,.62-1.16,1.91,1.91,0,0,1,1.83.1c.15.1.37.25.62.4a10.37,10.37,0,0,1,1.32.94,1.4,1.4,0,0,1,.92-.47c.54,0,1.14.79,1.56,1.44.58.91-.21,2.2-.5,2.69l-.12.19a2.37,2.37,0,0,0-.42,1.1.36.36,0,0,0,0,.18s.1-.05.2-.14a1,1,0,0,0,.18-.42,1.8,1.8,0,0,1,.29-.64,1.62,1.62,0,0,0,.13-.19.65.65,0,0,1,1-.27c.5.26,1,1.69,1.18,2.29a.13.13,0,0,1,0,.06A3.52,3.52,0,0,1,73,28.9a7,7,0,0,0-.71,1.92,1.3,1.3,0,0,1,1,.47,3.18,3.18,0,0,1,.4,2.6,9.57,9.57,0,0,0-.14,2.3.64.64,0,0,1,.26.1c.56.36.59,1.73.54,2a5.34,5.34,0,0,1-.78,1.49,1.87,1.87,0,0,0,.25.67.31.31,0,0,1-.09.4A.3.3,0,0,1,73.46,40.88ZM64.91,22.46a.34.34,0,0,0-.27.12c-.15.19-.4.89.61,3.31a.29.29,0,0,1,0,.24.27.27,0,0,1-.17.16s-.44.18-.49.52.26.78.86,1.27a21.51,21.51,0,0,1,3.7,3.42,34,34,0,0,1,2.06,4.36l0,.08a10.42,10.42,0,0,0,1.69,3.55.42.42,0,0,1,.09-.14,4.88,4.88,0,0,0,.65-1.24,2.44,2.44,0,0,0-.27-1.3l0,0a.31.31,0,0,1-.31,0,.3.3,0,0,1-.17-.26,11.24,11.24,0,0,1,.17-3,2.63,2.63,0,0,0-.3-1.95.74.74,0,0,0-.81-.23.31.31,0,0,1-.29-.08.33.33,0,0,1-.08-.29,8.76,8.76,0,0,1,1-2.59,2.92,2.92,0,0,0,.36-1.84,5.55,5.55,0,0,0-.86-1.9l-.13-.05s0,.07-.06.12a2.17,2.17,0,0,1-.15.22,1.12,1.12,0,0,0-.18.43,1.53,1.53,0,0,1-.35.68.84.84,0,0,1-.91.25.69.69,0,0,1-.34-.79,2.84,2.84,0,0,1,.51-1.35l.11-.19c.24-.4.88-1.45.51-2-.53-.84-.93-1.14-1-1.15a.91.91,0,0,0-.68.64,3.06,3.06,0,0,1-.1.65.31.31,0,0,1-.61-.07,2.82,2.82,0,0,1,.09-.69.54.54,0,0,0,0-.22,10,10,0,0,0-1.25-.88l-.64-.42a1.27,1.27,0,0,0-1.18,0,.54.54,0,0,0-.29.57c.08,1.14.08,1.72.08,1.75a.3.3,0,0,1-.12.24.3.3,0,0,1-.26.06Z"/><path class="cls-1" d="M76.34,40.69V39.52l0,0s1.76-.72,1.62-1.59a5.88,5.88,0,0,0-2.13-3.43.9.9,0,0,1-.56-.79.76.76,0,0,1,.4-.66A.7.7,0,0,1,76,33a4.79,4.79,0,0,0-1-1,3.62,3.62,0,0,1-1.47-2.15.62.62,0,0,1,.3-.59c.64-.43.81-.54.87-.6h0a2.1,2.1,0,0,1-1.17-1.41A6,6,0,0,0,73,26.14c-.15-.29-.24-.46-.16-.58a.29.29,0,0,1,.2-.09c-.54-.4-1.87-1.48-1.56-2.16l.14-.31c.15-.35.23-.5.42-.54a2.66,2.66,0,0,1-1.3-1.08,1.46,1.46,0,0,1-.06-1.18c.48-1.36.82-1.65,1-1.7l.06-.18c-.06-.3-.41-2.14.27-2.3l.25-.07h-.09v-.08a1,1,0,0,1,.36-.6.46.46,0,0,1,.28-.06c0-.17,0-.49.24-.59s.39,0,.69.27A5.67,5.67,0,0,1,75,16.68c.35.1,2.84.94,3.13,4.57.29.11,1.57.74,1.44,4a2.9,2.9,0,0,1-.15,2.28,2.22,2.22,0,0,0-.22.82,2.77,2.77,0,0,0,.24-.15l.16-.12a1.21,1.21,0,0,0,.26-.2c.29-.24.64-.54.9-.4s.29.58.19,1.41a8.83,8.83,0,0,1-.9,3.57.65.65,0,0,1,.46.54.54.54,0,0,1-.12.51,3,3,0,0,0-.38.7c-.05.11-.1.22-.14.33a4.52,4.52,0,0,0-.5,1.81c-.09,2.91-1.09,3.45-1.13,3.47Zm.16-1.07v.83l1.7-.74s1-.53,1-3.34a4.94,4.94,0,0,1,.51-1.86c0-.11.1-.22.14-.33a3.37,3.37,0,0,1,.4-.73.38.38,0,0,0,.1-.4.55.55,0,0,0-.44-.44h-.11l.06-.1a8.38,8.38,0,0,0,.93-3.6c.12-1,0-1.2-.11-1.25s-.51.19-.73.38a1.84,1.84,0,0,1-.28.21l-.15.12c-.18.12-.31.23-.42.15s-.1-.26.17-1a2.79,2.79,0,0,0,.15-2.16v-.05c.14-3.5-1.36-3.9-1.38-3.9l-.06,0v-.05c-.28-3.82-3-4.5-3.05-4.5h0v0A6,6,0,0,0,73.61,15c-.23-.2-.41-.29-.51-.24s-.16.42-.15.54v.11l-.11,0a.33.33,0,0,0-.26,0,.82.82,0,0,0-.27.43.19.19,0,0,1,.12.13c0,.1-.12.16-.43.23s-.31,1.36-.15,2.14v0l-.11.31h-.05s-.33.08-.87,1.61a1.3,1.3,0,0,0,0,1.06,3,3,0,0,0,1.63,1.16l0,.15c-.49-.06-.5-.06-.72.44l-.14.31c-.27.6,1.15,1.74,1.72,2.14l.28.18-.33,0c-.28,0-.32,0-.32,0s.08.25.16.42a5.24,5.24,0,0,1,.45,1.08,2,2,0,0,0,1.1,1.32c.09.05.14.07.14.13v0l0,0c-.07.09-.09.1-1,.68a.49.49,0,0,0-.23.46,3.48,3.48,0,0,0,1.4,2,5.87,5.87,0,0,1,1.25,1.26l.32.41-.42-.3a.35.35,0,0,0-.38,0,.62.62,0,0,0-.32.52.79.79,0,0,0,.49.66,5.85,5.85,0,0,1,2.2,3.54C78.31,38.8,76.8,39.49,76.5,39.62Z"/><path class="cls-1" d="M76.42,40.88a.34.34,0,0,1-.17-.05.31.31,0,0,1-.14-.26v-1a.32.32,0,0,1,.19-.29c.52-.21,1.56-.81,1.48-1.33a5.53,5.53,0,0,0-2-3.26,1.11,1.11,0,0,1-.68-1,1,1,0,0,1,.49-.83,3.31,3.31,0,0,0-.75-.69,3.8,3.8,0,0,1-1.59-2.34.89.89,0,0,1,.4-.8l.57-.37a2.41,2.41,0,0,1-1-1.39,5.31,5.31,0,0,0-.42-1c-.17-.33-.29-.57-.16-.79-.71-.56-1.69-1.5-1.36-2.25l.14-.31a2.92,2.92,0,0,1,.21-.4,2.6,2.6,0,0,1-1.09-1,1.68,1.68,0,0,1-.07-1.36,3.94,3.94,0,0,1,1-1.78v0c-.15-.76-.36-2.32.46-2.51a1.21,1.21,0,0,1,.46-.75.62.62,0,0,1,.19-.07.74.74,0,0,1,.35-.59c.4-.19.81.19.94.31a5.91,5.91,0,0,1,1.33,1.79c.61.21,2.85,1.2,3.18,4.61.48.24,1.56,1.13,1.46,4.14a3.38,3.38,0,0,1-.17,2.4l-.08.22.15-.12c.34-.29.76-.64,1.16-.43s.43.67.31,1.63a9.75,9.75,0,0,1-.82,3.45.84.84,0,0,1,.38.61.74.74,0,0,1-.17.68,2.84,2.84,0,0,0-.35.64l-.14.34a4.3,4.3,0,0,0-.48,1.73c-.09,3-1.14,3.6-1.26,3.66l-1.83.8Zm.31-1.11v.33l1.38-.6h0s.83-.53.9-3.13a5.11,5.11,0,0,1,.53-1.95l.14-.33a3.68,3.68,0,0,1,.42-.78c.08-.11.08-.11.06-.21a.3.3,0,0,0-.24-.26.31.31,0,0,1-.23-.17.34.34,0,0,1,0-.28c.32-.57.61-1.11.91-3.52a2.45,2.45,0,0,0,0-1,2.79,2.79,0,0,0-.46.33l-.31.24-.14.09c-.2.15-.45.33-.69.15s-.18-.52.09-1.27a2.66,2.66,0,0,0,.17-2,.26.26,0,0,1,0-.15C79.35,22,78,21.62,78,21.61a.31.31,0,0,1-.23-.27C77.51,17.7,75,17.07,74.91,17a.31.31,0,0,1-.22-.18,5.55,5.55,0,0,0-1.23-1.7,1.74,1.74,0,0,0-.25-.19,1.23,1.23,0,0,0,0,.29.29.29,0,0,1-.11.26.29.29,0,0,1-.28.06h-.08a.45.45,0,0,0-.11.15.39.39,0,0,1,.07.21c0,.32-.38.41-.6.46a3.21,3.21,0,0,0,0,1.87.29.29,0,0,1,0,.16l-.08.23a.32.32,0,0,1-.21.2,3.61,3.61,0,0,0-.73,1.47,1.05,1.05,0,0,0,0,.87,2.75,2.75,0,0,0,1.49,1.05.31.31,0,0,1,.22.36.31.31,0,0,1-.34.24,1.46,1.46,0,0,0-.32,0,1.81,1.81,0,0,0-.16.32l-.14.32c-.15.32.75,1.23,1.65,1.84a.33.33,0,0,1,.11.37.33.33,0,0,1-.3.2l0,.09a6,6,0,0,1,.47,1.12,1.75,1.75,0,0,0,1,1.18c.11.05.26.12.27.31a.32.32,0,0,1-.06.21h0c-.09.14-.09.14-1,.75a.28.28,0,0,0-.13.26,3.33,3.33,0,0,0,1.28,1.82,5.81,5.81,0,0,1,1.33,1.32.31.31,0,0,1-.43.43.13.13,0,0,0-.13,0,.4.4,0,0,0-.2.32c0,.21.2.36.37.45a6.19,6.19,0,0,1,2.32,3.71C78.54,38.83,77.25,39.53,76.73,39.77Zm-5-20.9Zm0,0Zm0,0Zm0,0Z"/><path class="cls-1" d="M69.18,67l-1.94-.09.58-1h.05s1.23,0,1.23-.86c0-.36,0-.77-.08-1.16-.07-.64-.13-1.14,0-1.34a1.46,1.46,0,0,0,.14-.31c0-.18.11-.36.27-.42a.47.47,0,0,1,.39,0c.37,0,1.33-.28,1.29-.64,0-.15,0-.27,0-.37a4.47,4.47,0,0,0-.1-.62,1,1,0,0,1,.28-.77.78.78,0,0,1,.58-.35.66.66,0,0,0,.53-.25.38.38,0,0,0,.05-.37,4.81,4.81,0,0,0-.25-.46,2.93,2.93,0,0,1-.61-1.6,3.78,3.78,0,0,0,0-.75,1.4,1.4,0,0,1,.12-1,1.2,1.2,0,0,1,.83-.53c.23-.07.61-1,.61-1.45a4.41,4.41,0,0,0-.09-.79,2.84,2.84,0,0,1-.06-.44c0-.31.38-1,.81-1,.2,0,.35-.17.5-.34a1.41,1.41,0,0,1,.25-.24c.23-.16.39-.16.84-.16.21,0,.36-.2.51-.42a1.29,1.29,0,0,1,.38-.42c.15-.09.2-.12.28-.06A1.1,1.1,0,0,0,77,48.7a1.85,1.85,0,0,0,1.27-1.06c0-.18.42-.28.74-.27.55,0,.92.26,1,.66A6.56,6.56,0,0,1,80.13,50,5.77,5.77,0,0,1,81,54.36a6.56,6.56,0,0,1-1.7,3.26.68.68,0,0,1,.47.27c.2.27.17.69-.07,1.26a8.79,8.79,0,0,1-3.87,4.17.72.72,0,0,1,.35.45.8.8,0,0,1-.34.71,6.15,6.15,0,0,1-2.12,1.08.37.37,0,0,1,0,.24c-.18.3-.82.45-1.9.43a.25.25,0,0,1,0,.12C71.62,66.68,70.76,66.88,69.18,67Zm-1.68-.23,1.68.07c2.1-.1,2.39-.41,2.42-.5a.13.13,0,0,0,0-.1l-.13-.13h.18c1.44,0,1.8-.2,1.89-.35a.19.19,0,0,0,0-.17l-.05-.09.09,0a6.2,6.2,0,0,0,2.14-1.07c.22-.2.32-.39.29-.56s-.41-.41-.41-.41l-.18-.08.18-.07a8.47,8.47,0,0,0,3.94-4.15c.21-.51.24-.89.09-1.11a.67.67,0,0,0-.54-.22h-.25l.2-.15a6.15,6.15,0,0,0,1.79-3.3A5.61,5.61,0,0,0,80,50.05l0,0v0a6.77,6.77,0,0,0-.08-1.94c-.09-.47-.66-.52-.84-.52-.35,0-.58.09-.59.15a1.93,1.93,0,0,1-1.37,1.17c-.47.15-.59.12-.66.07s-.05,0-.12.06a1.41,1.41,0,0,0-.34.38c-.16.24-.34.49-.63.49-.44,0-.57,0-.75.13a1.46,1.46,0,0,0-.23.21.84.84,0,0,1-.61.39c-.33,0-.65.55-.65.8a2.38,2.38,0,0,0,.05.41,4.67,4.67,0,0,1,.09.82c0,.49-.37,1.5-.72,1.6a1.12,1.12,0,0,0-.75.47c-.16.19-.12.54-.08.91a4.07,4.07,0,0,1,0,.78,3,3,0,0,0,.59,1.51,4.25,4.25,0,0,1,.26.48.52.52,0,0,1-.06.51.81.81,0,0,1-.66.33.67.67,0,0,0-.46.28,1.05,1.05,0,0,0-.26.65,3.41,3.41,0,0,1,.11.63c0,.11,0,.23,0,.37.07.58-1.29.8-1.44.82h0a.34.34,0,0,0-.28,0c-.09,0-.14.18-.19.33a1.11,1.11,0,0,1-.16.35,2.89,2.89,0,0,0,0,1.23c0,.4.09.81.09,1.18,0,.78-.86,1-1.35,1Z"/><path class="cls-1" d="M69.2,67.19l-1.85-.08A.33.33,0,0,1,67.1,67a.32.32,0,0,1,0-.3l.5-.88a.3.3,0,0,1,.27-.16s1,0,1-.63c0-.35,0-.75-.08-1.14-.09-.78-.13-1.24.06-1.5a1.17,1.17,0,0,0,.11-.25.8.8,0,0,1,.4-.56.66.66,0,0,1,.51,0c.48-.09,1-.27,1-.4s0-.25,0-.36a3.7,3.7,0,0,0-.1-.57,1.34,1.34,0,0,1,.33-1,1,1,0,0,1,.76-.43.42.42,0,0,0,.34-.15.16.16,0,0,0,0-.16,3.24,3.24,0,0,0-.23-.42,3.13,3.13,0,0,1-.64-1.75,3.4,3.4,0,0,0,0-.7,1.59,1.59,0,0,1,.17-1.19,1.47,1.47,0,0,1,1-.61,2.45,2.45,0,0,0,.43-1.22,4.16,4.16,0,0,0-.09-.75,3.13,3.13,0,0,1-.06-.48c0-.41.44-1.19,1-1.19.09,0,.22-.13.33-.25a1.33,1.33,0,0,1,.3-.28,1.39,1.39,0,0,1,1-.2c.09,0,.18-.13.32-.32a1.53,1.53,0,0,1,.46-.49.43.43,0,0,1,.48-.08,1.63,1.63,0,0,0,.37-.09,1.61,1.61,0,0,0,1.11-.9c.08-.33.6-.45,1-.44a1.14,1.14,0,0,1,1.21.84,7.62,7.62,0,0,1,.1,2,5.84,5.84,0,0,1,.83,4.48,7.16,7.16,0,0,1-1.51,3.11.9.9,0,0,1,.25.23,1.52,1.52,0,0,1,0,1.49,9,9,0,0,1-3.67,4.13.86.86,0,0,1,.17.36,1,1,0,0,1-.41.92,6.29,6.29,0,0,1-2,1.08.56.56,0,0,1-.07.19c-.22.36-.83.54-1.91.54C71.81,66.77,71.35,67.09,69.2,67.19Zm-1.31-.68,1.3.06a5.53,5.53,0,0,0,2.15-.34.34.34,0,0,1,0-.2.31.31,0,0,1,.29-.19c1.51,0,1.68-.23,1.68-.24a.26.26,0,0,1,0-.24.27.27,0,0,1,.21-.15,6.34,6.34,0,0,0,2-1c.14-.14.22-.27.21-.35s-.18-.21-.27-.24a.32.32,0,0,1-.19-.29.29.29,0,0,1,.19-.28,8.24,8.24,0,0,0,3.82-4c.25-.59.16-.81.11-.88s-.33-.13-.33-.13a.33.33,0,0,1-.31-.2.31.31,0,0,1,.1-.36,5.78,5.78,0,0,0,1.7-3.16,5.32,5.32,0,0,0-.8-4.08.33.33,0,0,1,0-.25,6.63,6.63,0,0,0-.09-1.84.32.32,0,0,0-.25-.27,1.16,1.16,0,0,0-.76,0,2.22,2.22,0,0,1-1.49,1.24,1.43,1.43,0,0,1-.72.11h0a1.28,1.28,0,0,0-.28.32,1,1,0,0,1-.82.59c-.44,0-.5,0-.62.09a1,1,0,0,0-.19.18,1.08,1.08,0,0,1-.78.46c-.15,0-.42.39-.42.57a2,2,0,0,0,0,.37,4.85,4.85,0,0,1,.1.86c0,.52-.39,1.68-.9,1.82a.9.9,0,0,0-.63.39,1.27,1.27,0,0,0,0,.75,4.48,4.48,0,0,1,0,.83,2.92,2.92,0,0,0,.56,1.36,3.53,3.53,0,0,1,.28.53.78.78,0,0,1-.09.72,1,1,0,0,1-.85.42.37.37,0,0,0-.24.16.91.91,0,0,0-.25.49,4,4,0,0,1,.11.65c0,.11,0,.23,0,.38.09.76-1.23,1-1.64,1.07a.29.29,0,0,1-.18,0,.3.3,0,0,0-.11,0s0,.11,0,.18a1.24,1.24,0,0,1-.2.42,5.71,5.71,0,0,0,.06,1.07c0,.38.09.82.09,1.2,0,.89-.86,1.19-1.44,1.24ZM78.68,47.73v0A0,0,0,0,0,78.68,47.73Z"/><path class="cls-1" d="M68.24,66.52a.32.32,0,0,1-.29-.21.31.31,0,0,1,.19-.39,9.69,9.69,0,0,0,3.49-2.6.47.47,0,0,1,.05-.1c.18-.25,0-1-.18-1.44a.31.31,0,0,1,.17-.4.3.3,0,0,1,.4.17,4.46,4.46,0,0,1,.27.92,14.82,14.82,0,0,0,1.78-3.12.3.3,0,0,1,0-.26,10.34,10.34,0,0,0-.25-2.88,10.8,10.8,0,0,1,0-1.15,8.07,8.07,0,0,0,0-1.09,19.85,19.85,0,0,1,.07-2.34.34.34,0,0,1,.33-.29.32.32,0,0,1,.29.33,19.9,19.9,0,0,0-.09,2.18,5.69,5.69,0,0,1,0,1.24,8.93,8.93,0,0,0,0,1c0,.14.18.93.25,1.71.66-1.67,1.25-3.15,1.77-4.38a.24.24,0,0,1,0-.08,4,4,0,0,1,.11-1.75,3.77,3.77,0,0,0,0-1.49.32.32,0,0,1,.25-.36.31.31,0,0,1,.36.25,4.33,4.33,0,0,1,0,1.84.69.69,0,0,0,0,.17,24.1,24.1,0,0,1,1.17-2.47.31.31,0,0,1,.53.32,42.14,42.14,0,0,0-2.15,4.81,2,2,0,0,1,.42-.2,2.72,2.72,0,0,0,1.06-1,.31.31,0,0,1,.52.35,3.55,3.55,0,0,1-1.39,1.2,2.37,2.37,0,0,0-1,.88.31.31,0,0,1-.16.12c-.25.62-.51,1.29-.8,2a4.93,4.93,0,0,0,.67-.52,2.83,2.83,0,0,1,1.55-.73.31.31,0,0,1,0,.62,2.7,2.7,0,0,0-1,.45,3.21,3.21,0,0,1-.85.7l-.24.17-.53.44c-.22.54-.45,1-.69,1.51a2,2,0,0,1,.83-.26,5.48,5.48,0,0,0,1.52-.63l.14-.07a.31.31,0,0,1,.41.14.29.29,0,0,1-.14.41l-.13.07a5.22,5.22,0,0,1-1.8.7,3.09,3.09,0,0,0-1.27.66.36.36,0,0,1-.17.07,11.07,11.07,0,0,1-5.2,4.67A.16.16,0,0,1,68.24,66.52ZM65.7,61a.3.3,0,0,1-.3-.23,10.65,10.65,0,0,0-1.33-3,.31.31,0,0,1,.5-.37,7.77,7.77,0,0,1,.92,1.73,10.83,10.83,0,0,1,.57-2.3,6,6,0,0,0,.19-1.51.32.32,0,0,1-.13-.26c0-.26-.15-.41-.53-.69-.57-.45-.26-1.53,0-1.89a1,1,0,0,0,0-1,1,1,0,0,1-.25-.83,1.17,1.17,0,0,1,.54-.72.37.37,0,0,1,.18,0c0-.25,0-.48,0-.71a7.79,7.79,0,0,0,.05-.79c0-.33-.14-.41-.6-.47l-.15,0a.71.71,0,0,1-.63-.66.31.31,0,0,1,.31-.31.31.31,0,0,1,.31.29s.09.06.12.07l.12,0h0a1.15,1.15,0,0,1,.16-.86A1.42,1.42,0,0,1,67.07,46a.31.31,0,1,1,0,.62c-.15,0-.57,0-.7.19a.89.89,0,0,0,0,.75.94.94,0,0,1,.4.84c0,.25,0,.54,0,.84a8.74,8.74,0,0,0-.06,1.16c.42-.73,1-1.91,1-1.92a.31.31,0,0,1,.55.29c-.05.09-1.1,2-1.4,2.49a.32.32,0,0,1-.12.11,23.68,23.68,0,0,1-.08,5.53c.6-.77,1.26-1.54,1.38-1.68a.32.32,0,0,1,.44,0,.31.31,0,0,1,0,.44,16.9,16.9,0,0,0-2.25,3,.31.31,0,0,1-.11.16A8,8,0,0,0,66,60.69a.33.33,0,0,1-.26.32Zm.54-8.41a1.35,1.35,0,0,1-.15.26c-.16.23-.29.89-.12,1l.3.24C66.27,53.61,66.26,53.08,66.24,52.6Zm-.17-2a.44.44,0,0,0-.1.19.42.42,0,0,0,.12.33l0,0v0C66.1,51,66.08,50.77,66.07,50.59Zm-.65-3.34h0Zm11.65,1.83H77a.31.31,0,0,1-.21-.38c0-.11.11-.39.22-.72a.25.25,0,0,1,0-.12,6.27,6.27,0,0,0,0-1.79c0-.22,0-.39,0-.48a.31.31,0,1,1,.61,0c0,.08,0,.24,0,.42s0,.38,0,.56a6.81,6.81,0,0,0,.84-1,.29.29,0,0,1,0-.13,2.81,2.81,0,0,0-.4-1.46.31.31,0,0,1,.56-.27c0,.1.13.28.21.49a2.84,2.84,0,0,1,.54-.82,1.26,1.26,0,0,0,.42-.73.31.31,0,0,1,.35-.26.32.32,0,0,1,.26.36,2,2,0,0,1-.57,1.05A1.63,1.63,0,0,0,79.4,45c0,.71-.94,1.69-1.32,2.08a1.88,1.88,0,0,0-.3.57A2.33,2.33,0,0,0,78.4,47a2.05,2.05,0,0,1,1.45-1.1.61.61,0,0,0,.44-.31.31.31,0,1,1,.51.35,1.24,1.24,0,0,1-.83.56,1.52,1.52,0,0,0-1,.78,3.87,3.87,0,0,1-1.36,1.22l-.12,0c0,.13-.08.25-.11.36A.3.3,0,0,1,77.07,49.08Zm-3.9-9.58a.3.3,0,0,1-.3-.23c-.09-.34-2.3-6.25-3.14-8.48l-.25-.69c-.06-.15-.13-.32-.2-.52a.2.2,0,0,1-.08-.1c-.44-.87-2.24-1.82-2.9-2.11a.31.31,0,0,1,.25-.56,11.55,11.55,0,0,1,2.15,1.26v0c-.26-.67-.56-1.47-.87-2.28a.3.3,0,0,1-.22-.16,9.93,9.93,0,0,0-2.35-2.43.31.31,0,1,1,.32-.52A9.16,9.16,0,0,1,67.16,24c-.44-1.14-.81-2-.91-2.18a.31.31,0,0,1,.06-.43.3.3,0,0,1,.42,0,35,35,0,0,1,1.59,3.85h0a1.46,1.46,0,0,1,.33-.95,4.22,4.22,0,0,0,.54-.86.31.31,0,0,1,.4-.17.31.31,0,0,1,.17.4,4.89,4.89,0,0,1-.63,1,.93.93,0,0,0-.2.61,2,2,0,0,1,0,.32,5.27,5.27,0,0,0,0,.95.3.3,0,0,1,0,.16l.38,1c.26.69.5,1.3.67,1.76a6,6,0,0,1,.2-.63,3.69,3.69,0,0,1,.23-.46c.16-.31.54-1,.6-1.23a.31.31,0,0,1,.17-.29.31.31,0,0,1,.41.14c.1.19.06.34-.64,1.67-.1.19-.18.34-.2.39a13.41,13.41,0,0,0-.36,1.42s0,0,0,0c.44,1.18.87,2.34,1.27,3.4.05-.07.09-.15.15-.22a2.25,2.25,0,0,0,.34-1.14.31.31,0,0,1,.17-.4.3.3,0,0,1,.4.16,2.45,2.45,0,0,1-.42,1.75,3.18,3.18,0,0,0-.31.57.09.09,0,0,1,0,.06c.89,2.38,1.53,4.13,1.58,4.32a.3.3,0,0,1-.23.37ZM78.67,38h-.09a.31.31,0,0,1-.2-.39,22.1,22.1,0,0,0-.14-2.89.51.51,0,0,1,0-.13A4.52,4.52,0,0,0,77,32.86a.31.31,0,0,1,.34-.52,4.59,4.59,0,0,1,.8.83l0-.19c0-.66-.1-1.29-.14-1.83,0,0,0,0,0,0a11.93,11.93,0,0,0-2.69-2.57.3.3,0,0,1-.13-.41.31.31,0,0,1,.42-.13,13,13,0,0,1,2.28,2,26,26,0,0,0-1.06-3.68l0-.05a22.88,22.88,0,0,0-3.15-2.43.32.32,0,0,1-.09-.43.31.31,0,0,1,.43-.08c.09.06,1.42,1,2.38,1.73a.49.49,0,0,0,0-.11c-.16-.44-.28-.79-.34-1a22.63,22.63,0,0,0-1-2.18l0-.06a1.5,1.5,0,0,0-.8-.5,1.22,1.22,0,0,1-.71-.45c-.23-.35-.44-.74-.44-.74a.3.3,0,0,1,.12-.42.31.31,0,0,1,.42.12s.2.37.42.72a1.17,1.17,0,0,0,.39.19l.07,0c-.32-.63-.61-1.18-.79-1.52l-.14-.26a2.47,2.47,0,0,1-.18-1.26v-.12a.31.31,0,0,1,.62,0,1,1,0,0,1,0,.16,2,2,0,0,0,.12.94l.14.25c.48.92,1,2,1.51,2.94a6.17,6.17,0,0,1,0-.87,1.76,1.76,0,0,1,.21-.72.85.85,0,0,0,.09-.24.31.31,0,0,1,.37-.23.3.3,0,0,1,.23.37,1.37,1.37,0,0,1-.14.37,1.33,1.33,0,0,0-.14.53,6.19,6.19,0,0,0,0,1.06,4.06,4.06,0,0,1,0,.86.38.38,0,0,1,0,.1,6.09,6.09,0,0,1,.31.75c.06.2.19.53.35,1,.25.69.57,1.58.87,2.5l0-.16c0-.22.08-.43.1-.56a6.06,6.06,0,0,1,.56-1.72.31.31,0,0,1,.42-.1.3.3,0,0,1,.1.42,6,6,0,0,0-.48,1.51c0,.12,0,.33-.09.56a12.65,12.65,0,0,0-.19,1.26.42.42,0,0,1,0,.15,11.7,11.7,0,0,1,.41,2.14c0,.25,0,.53.06.83a5.72,5.72,0,0,0,.48-.87,1.6,1.6,0,0,1,.33-.59,3.13,3.13,0,0,0,.23-.31.32.32,0,0,1,.43-.09.32.32,0,0,1,.09.43,4.28,4.28,0,0,1-.26.36,1,1,0,0,0-.22.35,8.18,8.18,0,0,1-1,1.69h0c0,.14,0,.28,0,.43A31,31,0,0,1,79,37.76.31.31,0,0,1,78.67,38ZM70.91,20a.29.29,0,0,1-.26-.15l-.8-1.38a15.82,15.82,0,0,1-3.47-1.18l-.5-.21a6.16,6.16,0,0,0-1.7-.48.31.31,0,1,1,0-.61,6.66,6.66,0,0,1,1.92.52l.52.21a21.87,21.87,0,0,0,2.83,1.05c-.58-1-1.2-2.13-1.4-2.53a18.34,18.34,0,0,0-3.82-1.7A8.39,8.39,0,0,1,62.77,13l-.6-.27a.32.32,0,0,1-.15-.41.3.3,0,0,1,.4-.16l.62.29a7.58,7.58,0,0,0,1.37.55,28.93,28.93,0,0,1,2.94,1.18c-1.12-1.65-3.22-4.54-3.54-4.86a.3.3,0,0,1,0-.43.31.31,0,0,1,.44,0c.14.14.6.73,1.16,1.5a1.33,1.33,0,0,0-.06-.44,1.84,1.84,0,0,1-.13-.64c0-.09,0-.18,0-.3a.32.32,0,0,1,.24-.36.32.32,0,0,1,.36.25,1.8,1.8,0,0,1,0,.37,1.38,1.38,0,0,0,.09.45A3.24,3.24,0,0,1,66,10.93v.24c.37.51.76,1.06,1.12,1.58a3.78,3.78,0,0,0,.07-1.2,2.21,2.21,0,0,0-.47-1.28,2.37,2.37,0,0,1-.22-.33.3.3,0,0,1,.12-.41.3.3,0,0,1,.42.12c0,.09.12.17.18.26a2.86,2.86,0,0,1,.59,1.59,4.41,4.41,0,0,1-.23,1.9c.49.72.88,1.3,1,1.53v0c.1.21.36.69.68,1.26a6.27,6.27,0,0,0,.06-2.85.3.3,0,0,1,.19-.39.3.3,0,0,1,.39.19c.15.44.41,2.68-.27,3.67v0c.72,1.27,1.54,2.68,1.55,2.7a.3.3,0,0,1-.11.42A.29.29,0,0,1,70.91,20Zm-8.55-9a.29.29,0,0,1-.27-.17l-.1-.12h-.1a20.51,20.51,0,0,1-2.3-.77l-.09,0a.31.31,0,0,1,.22-.58l.09,0c.39.15.95.36,1.42.52-.56-.61-1.33-1.41-2-2.15a.31.31,0,0,1,0-.44.3.3,0,0,1,.44,0c.29.29.71.72,1.14,1.18V7.6a.31.31,0,0,1,.62,0V9.16a15.6,15.6,0,0,1,1.26,1.44.31.31,0,0,1-.14.41A.35.35,0,0,1,62.36,11ZM53.68,7.41a.31.31,0,0,1-.22-.09.31.31,0,0,1,0-.44A2.49,2.49,0,0,1,55,6.36a3.07,3.07,0,0,0,1-.23c-.7-.29-1.48-.63-2.25-1h-.86c-.73,0-2.66,0-3.14.08A.31.31,0,0,1,49.4,5a.3.3,0,0,1,.25-.35c.4-.07,1.53-.08,2.7-.09C50.62,3.77,49.14,3.08,48.89,3a.3.3,0,0,1-.13-.41.31.31,0,0,1,.41-.14c.35.19,1.74.82,3.34,1.54a2.73,2.73,0,0,1-.15-.56c0-.34-1-1.19-1.26-1.46l-.17-.16a.31.31,0,1,1,.42-.45l.17.15c.7.65,1.39,1.32,1.45,1.83a1.64,1.64,0,0,0,.44.94l.4.28c1.17.52,2.34,1,3.24,1.39a4.91,4.91,0,0,0-1.91-2.56A.31.31,0,0,1,55,2.93a.3.3,0,0,1,.41-.15c.69.32,2.33,2.08,2.29,3.37a5.17,5.17,0,0,0,.88.29.32.32,0,0,1,.26.36.3.3,0,0,1-.35.25,10.22,10.22,0,0,1-1.74-.62A3.49,3.49,0,0,1,55.08,7c-.82.09-1.06.23-1.18.35A.31.31,0,0,1,53.68,7.41Z"/><path class="cls-1" d="M41.19,83.85c-.64.29-9.19,2.7-10.89,2.58-1.09-.09-5.58.26-9.18.54v.16L21.08,87c-2.11.16-3.93.31-4.42.31a3.25,3.25,0,0,1-2-.44l-.24-.12c-1.37-.68-10.66-6.76-11.8-8l-.15-.17c-.57-.63-1-1.09-.42-1.87a14.47,14.47,0,0,0,1.63-5.21c0-.72.22-1.53.84-1.65a1.39,1.39,0,0,1,.32,0,16.08,16.08,0,0,1,2.4.34l.68.13A2.78,2.78,0,0,0,9.56,70a.16.16,0,0,0,.08-.1L10,68.55A1.43,1.43,0,0,1,11,70.12c-.13,1.37-.26,4.09-.3,4.89v.08a.16.16,0,0,0,.06.13l0,0c.58.46,5.54,3.8,6.24,4.21a1.91,1.91,0,0,0,1.78.32c.19,0,1.87-.27,3.81-.54h.1c3.72-.5,8.81-1.19,9.84-1.47a25.8,25.8,0,0,1,4.76-.35l1.28,0a1.06,1.06,0,0,1,.13-.47l-1.42,0a25.69,25.69,0,0,0-4.87.36c-1,.28-6.09,1-9.81,1.47-2.24.3-3.72.5-3.93.55a1.48,1.48,0,0,1-1.43-.27c-.66-.38-5.2-3.44-6.1-4.1,0-.52.16-3.38.29-4.8A1.92,1.92,0,0,0,9.9,68H9.83a.14.14,0,0,0-.17.11l-.43,1.54A2.35,2.35,0,0,1,8,69.76l-.62-.11H7.35a10,10,0,0,0-2.89-.31c-.89.17-1.21,1.2-1.21,2.1a14.52,14.52,0,0,1-1.54,4.94c-.78,1.09-.13,1.81.46,2.47L2.3,79c1.17,1.31,10.56,7.47,11.94,8.15l.24.12a3.63,3.63,0,0,0,2.18.49c.5,0,2.33-.14,4.44-.31h0c3.4-.27,8.06-.64,9.13-.55,1.7.12,9.87-2.16,11-2.59A.91.91,0,0,1,41.19,83.85Z"/><path class="cls-1" d="M10.84,75.28a.16.16,0,0,1-.09,0s-4.33-3-5.35-3.62c-.69-.42-.9-.67-.8-.94s.32-.41,2.05,0a.14.14,0,0,1,.1.07.14.14,0,0,1,0,.11l0,.15a.14.14,0,0,1-.18.12,6.79,6.79,0,0,0-1.4-.19,5.66,5.66,0,0,0,.48.33c1,.59,4.62,3.12,5.35,3.62a.21.21,0,0,1,.08.11.15.15,0,0,1,0,.13l-.08.12a.17.17,0,0,1-.1.07Zm-2-4.62a.13.13,0,0,1-.1,0,.17.17,0,0,1-.06-.1v-.15a.15.15,0,0,1,.14-.17c.84-.08,1.34-.29,1.45-.61s-.36-1-.57-1.16a.16.16,0,0,1,0-.22l.1-.11a.16.16,0,0,1,.11,0,.17.17,0,0,1,.11,0c.1.09.94.9.68,1.65-.17.51-.79.82-1.84.92Z"/><path class="cls-1" d="M81.47,76.36a14.39,14.39,0,0,1-1.56-4.93c0-.9-.32-1.92-1.19-2.1a10.14,10.14,0,0,0-2.91.31l-.66.12a2.36,2.36,0,0,1-1.21-.09L73.48,68l-.21,0a1.91,1.91,0,0,0-1.5,2.13c.12,1.37.25,4.07.28,4.79-1,.68-6.06,4.16-6.68,4.54a1.48,1.48,0,0,1-1.43.27c-.21-.05-1.73-.32-3.66-.67-3.58-.64-8.49-1.51-9.52-1.79a25.4,25.4,0,0,0-4.85-.36c-.9,0-1.67,0-2-.08h-.07a1,1,0,0,1,.12.48c.38,0,1.06.06,1.91.07a25.5,25.5,0,0,1,4.74.35c1,.28,6,1.16,9.56,1.8l.11,0c1.79.32,3.33.59,3.52.64a1.91,1.91,0,0,0,1.78-.32c.66-.41,6.21-4.19,6.82-4.64l.1-.08V75c0-.8-.17-3.52-.29-4.89a1.4,1.4,0,0,1,.92-1.57l.38,1.39,0,.08.06,0a2.72,2.72,0,0,0,1.59.17l.68-.13a10.81,10.81,0,0,1,2.72-.31c.6.12.81.93.81,1.65a14.81,14.81,0,0,0,1.65,5.2c.54.78.15,1.24-.41,1.87l-.16.18c-1.11,1.23-11.38,7.83-13,8.63l-.23.12a3.2,3.2,0,0,1-2,.44c-.52,0-2.38-.26-4.53-.56-3-.42-6.32-.89-7.64-.89h-.42c-1.43,0-5.93-1.17-8.65-2a1,1,0,0,1-.27.3l-.13.08c2.74.79,7.55,2,9.06,2h.15a68.94,68.94,0,0,1,7.76.86h.07c2.17.31,4.05.57,4.6.57a3.61,3.61,0,0,0,2.19-.49l.23-.12c1.29-.65,11.9-7.39,13.11-8.73L81,78.8C81.59,78.16,82.22,77.45,81.47,76.36Z"/><path class="cls-1" d="M72.3,75.34,72,75l.13-.09c.75-.52,4.42-3.05,5.37-3.64A3.27,3.27,0,0,0,78,70.9a7.86,7.86,0,0,0-1.4.19l-.15,0-.09-.45.15,0c1.74-.36,2-.18,2,0s-.11.52-.8.94c-1,.63-5.31,3.59-5.35,3.62Zm2.14-4.67h-.15c-1.05-.1-1.67-.41-1.84-.91-.25-.76.61-1.57.7-1.66l.12-.11.31.34-.11.11c-.19.18-.71.77-.58,1.17s.61.52,1.44.6h.16Z"/><path class="cls-1" d="M40.23,87.75a3.83,3.83,0,0,1-2.32-1.39,7,7,0,0,0-1-.88l-.4-.27.46-.15c1.37-.45,2.51-.8,3.92-1.19v0c0-.16.06-.34.1-.59l0-.15a5.36,5.36,0,0,0,0-2.55,13.07,13.07,0,0,0-1-2.36c-.24-.41-.74-.48-1.33-.57a4.68,4.68,0,0,1-1.06-.25l-.11,0,0-.13-.09,0,.09,0,0-.2.11,0a1.76,1.76,0,0,0,.71-.28,4.09,4.09,0,0,1,1.63-.55,1.24,1.24,0,0,1,.74.1l.08,0a2.52,2.52,0,0,1,3.52.94c.25.38.51.74.76,1.09a8,8,0,0,1,1.71,3.28,2.42,2.42,0,0,1-.49,1.89c-.46.73-1.2,1.37-1.93,1.1a9.6,9.6,0,0,1-3.34,3.05A1.79,1.79,0,0,1,40.23,87.75Zm-2.72-2.39c.24.2.47.43.72.66.87.84,1.7,1.63,2.64,1.09a8.78,8.78,0,0,0,3.25-3,1.59,1.59,0,0,1,.16-.37,1.19,1.19,0,0,0,.08-.16,3.58,3.58,0,0,0,.11-.35l0-.14.43,0v.14a1.17,1.17,0,0,1-.15.5,2.58,2.58,0,0,1-.13.31c.46.11,1-.41,1.33-.93a2,2,0,0,0,.43-1.58,7.74,7.74,0,0,0-1.64-3.08L44,77.36a2,2,0,0,0-2.76-.86l.21.18a3.25,3.25,0,0,1,.38.34l.08.1-.28.31-.11-.07a3,3,0,0,1-.46-.38c-.31-.28-.53-.48-.94-.42a3.72,3.72,0,0,0-1.47.5l-.12.07.25,0a2.09,2.09,0,0,1,1.67.8,13.85,13.85,0,0,1,1,2.44,5.89,5.89,0,0,1,0,2.77l0,.16c0,.25-.08.43-.11.58v.13a1.09,1.09,0,0,1-.09.47c0,.11,0,.22-.06.36l0,.14-.44,0v-.14a1.11,1.11,0,0,1,.07-.44v0C39.62,84.7,38.62,85,37.51,85.36Z"/><path class="cls-2" d="M8.19,77.13a5,5,0,0,0,.55-.84c.08-.27-.11-.42-.28-.52l.13-.17,2.48,1.8-.67.92-.12-.09c.42-.77.19-1-.34-1.4l-.35-.25c-.17-.12-.12-.12-.31.15l-1,1.44c.64.54,1,.27,1.35-.15l.11.09-.63.81c-.17.25-.36.52-.52.77l-.13-.08c.4-.69.17-.92-.31-1.27l-.73,1A2.28,2.28,0,0,0,7,80c0,.31.28.54.49.69.52.35.91.52,1.52-.15l.1.08-.75.94-2.73-2,.1-.13c.17.11.38.25.59.11A7.07,7.07,0,0,0,7,78.82Z"/><path class="cls-2" d="M14.28,81.65c-.06-.52,0-.93-.52-1.08l0-.17.86.25a6.77,6.77,0,0,1,.87.19l0,.17c-.18-.07-.48-.13-.54.17A13.63,13.63,0,0,0,15,83l.17,2,1-1.54A9.76,9.76,0,0,0,17,81.74c.1-.36-.15-.42-.38-.46l0-.17c.23,0,.44.13.67.19l.65.1-.05.19c-.54-.15-.77.46-1.06.92l-2.08,3.4-.19,0Z"/><path class="cls-2" d="M26.78,81.84a7.09,7.09,0,0,0-.19-1c-.13-.25-.38-.21-.56-.19l0-.16c.31,0,.6-.07.89-.09l.94-.14,0,.16c-.19,0-.46.07-.5.32a5.85,5.85,0,0,0,.08,1L27.7,84c.12,1,.27,1.11,1.06,1a1.27,1.27,0,0,0,.85-.31,1.12,1.12,0,0,0,.3-1l.14,0L30.18,85h-.34c-1.06.17-2.12.32-3.19.46l0-.17c.19,0,.44-.06.48-.33a4.33,4.33,0,0,0-.06-1Z"/><path class="cls-2" d="M30.68,81.34a5.21,5.21,0,0,0-.19-1,.47.47,0,0,0-.56-.17l0-.19c.29,0,.58,0,.89-.08l.92-.14,0,.16c-.19,0-.44.06-.5.32a5.7,5.7,0,0,0,.08,1l.28,2.1a5.31,5.31,0,0,0,.2,1c.11.22.36.2.57.16l0,.19c-.29,0-.61,0-.9.08s-.62.11-.94.15l0-.17c.21,0,.46-.06.5-.31a5.6,5.6,0,0,0-.06-1Z"/><path class="cls-2" d="M35.75,79.23l.08,0,.25,1.46-.15,0a1.4,1.4,0,0,0-1.5-1.23c-1.1.15-1.25,1.53-1.1,2.65s.69,2.28,1.77,2.13c.88-.12,1.08-.92,1.15-1.83l.1,0L36.58,84H36.5l-.19-.35a1.93,1.93,0,0,1-1.29.75c-1.28.17-2.26-.69-2.46-2.21s.56-2.76,1.81-2.92a1.93,1.93,0,0,1,1.31.29Z"/><path class="cls-2" d="M49.53,81.24a4.21,4.21,0,0,0,.09-1c0-.28-.29-.32-.5-.36l0-.17a9.32,9.32,0,0,0,.92.17L51,80l0,.16c-.19,0-.46-.06-.56.17a5,5,0,0,0-.23,1l-.31,2.11a4.33,4.33,0,0,0-.09,1c0,.27.3.29.5.33l0,.17c-.31,0-.6-.1-.91-.17l-1-.12,0-.17c.21,0,.46.08.58-.17a4,4,0,0,0,.23-1Z"/><path class="cls-2" d="M55.14,81.84l-.16,0c.06-.73-.15-1-.73-1-.25,0-.63-.13-.65.1l-.54,3.53c-.09.56,0,.77.58.89l0,.17c-.35,0-.71-.12-1-.19l-1-.1,0-.19c.62.06.75-.12.83-.67l.52-3.54c0-.21-.25-.23-.5-.27-.62-.11-.94-.11-1.08.77l-.15,0,.17-1.17,3.9.6Z"/><path class="cls-2" d="M60.25,82.89a5.28,5.28,0,0,0,.11-1c0-.27-.31-.31-.5-.35l0-.17.9.19c.33,0,.64.08,1,.15l0,.16c-.2,0-.45-.08-.58.15a5,5,0,0,0-.23,1l-.37,2.21c-.17.94-.07,1.13.73,1.25a1.35,1.35,0,0,0,.91,0,1.23,1.23,0,0,0,.59-.85l.14,0-.27,1.29a2,2,0,0,1-.33-.08c-1.09-.17-2.17-.36-3.26-.52l0-.17c.2,0,.45.06.58-.17a4.55,4.55,0,0,0,.23-1Z"/><path class="cls-2" d="M64.3,83.61a4.19,4.19,0,0,0-.15-1c-.1-.26-.35-.24-.56-.24l0-.16.94,0,1-.11v.19c-.21,0-.46,0-.52.29a4.18,4.18,0,0,0,0,1l.14,2.13a5,5,0,0,0,.15,1c.1.25.35.23.56.23l0,.17-.91,0-1,.08V87c.2,0,.45,0,.52-.3a4.18,4.18,0,0,0,0-1Z"/><path class="cls-2" d="M69.62,79.94a.72.72,0,0,0-.84,0l-.08-.14a5.5,5.5,0,0,0,.5-.34l.4-.31,4.46,1.53h0L72.83,79a7.38,7.38,0,0,0-.73-.92c-.31-.3-.44-.17-.73,0l-.1-.15.6-.38.52-.43.11.14c-.17.17-.34.25-.21.57a9.09,9.09,0,0,0,.73,1.1l1.92,2.61-.17.12-.71-.25L69.93,80v0l1.48,2a4.76,4.76,0,0,0,.73.82c.27.18.44,0,.65-.07l.1.13-.62.41-.54.44-.11-.12c.17-.19.36-.34.23-.63a9.52,9.52,0,0,0-.58-.88Z"/><path class="cls-2" d="M6.84,74.27l-.65-.44c-.27-.23-.56-.46-.83-.67l-.11.15c.17.1.38.25.27.5a4.48,4.48,0,0,1-.56.83L3.67,76.35a6.16,6.16,0,0,1-.65.76c-.21.16-.42,0-.56-.11l-.11.13.75.54.67.54.11-.12c-.15-.13-.36-.27-.26-.53a6.14,6.14,0,0,1,.57-.83L4.71,76c.27.19.23.21.21.56l-.13,1.86,0,.52c.13.11.25.17.38.27l.44.36.1-.15a.78.78,0,0,1-.23-.71l.06-2.25a1.22,1.22,0,0,0,1.69-.36C7.84,75.29,7.4,74.71,6.84,74.27Zm-.31,1.48c-.61.79-1,.5-1.59.06L6,74.39c.05-.06.13-.16.21-.16s.23.18.3.23C6.92,74.75,6.9,75.27,6.53,75.75Z"/><path class="cls-2" d="M13.16,78.88c-.25-.17-.5-.31-.73-.48l-.75-.56-.11.14c.17.13.38.25.29.52a7.06,7.06,0,0,1-.54.86l-1.19,1.73a4.72,4.72,0,0,1-.62.79c-.21.19-.42.05-.59-.08L8.84,82l.75.5.77.56.11-.14c-.17-.13-.44-.26-.34-.55a4,4,0,0,1,.53-.85l.5-.75s.25.18.33.24a1.39,1.39,0,0,0,2.11-.2A1.3,1.3,0,0,0,13.16,78.88Zm-.23,1.46c-.42.6-.82.69-1.3.35-.08-.06-.16-.14-.25-.2l1-1.4c.19-.27.17-.27.51,0S13.32,79.8,12.93,80.34Z"/><path class="cls-2" d="M22.15,84.74a1.3,1.3,0,0,0-.61-1,1.56,1.56,0,0,0-.94-.17l0,0a1.2,1.2,0,0,0,.8-1.27c-.15-1-1.05-1.08-1.69-1l-.73.13-.9.08,0,.17c.21,0,.46-.07.56.18a4.68,4.68,0,0,1,.19,1l.29,2.1a9.27,9.27,0,0,1,.09,1c-.05.28-.32.32-.5.34l0,.16c.35,0,.68-.1,1-.16a7.43,7.43,0,0,0,.81-.09,2,2,0,0,0,1.13-.35A1.23,1.23,0,0,0,22.15,84.74ZM19.41,82s0-.23,0-.29a.71.71,0,0,1,.34-.07c.5-.08.81.19.87.8a.85.85,0,0,1-.16.83.94.94,0,0,1-.65.23l-.19,0Zm1.24,3.92c-.23,0-.51.08-.65-.19a3.47,3.47,0,0,1-.17-.85L19.71,84l.16,0a1.61,1.61,0,0,1,.9,0,1,1,0,0,1,.52.83C21.4,85.43,21.19,85.87,20.65,85.93Z"/><path class="cls-2" d="M26.11,84.22a1.2,1.2,0,0,0-.6-1,1.44,1.44,0,0,0-.94-.19v0a1.21,1.21,0,0,0,.77-1.27c-.13-1-1-1.09-1.67-1-.25,0-.5.08-.73.12s-.6,0-.9.09l0,.16c.19,0,.46-.06.57.19a7.11,7.11,0,0,1,.18,1l.28,2.11a5.82,5.82,0,0,1,.06,1c0,.27-.29.3-.48.34l0,.16c.33-.06.69-.12,1-.16s.55,0,.82-.09a2.05,2.05,0,0,0,1.1-.33A1.22,1.22,0,0,0,26.11,84.22ZM23.4,81.49a.51.51,0,0,1,0-.3c0-.06.25-.06.31-.08.5-.06.81.21.9.82a1,1,0,0,1-.19.83,1,1,0,0,1-.65.23l-.18,0Zm1.21,3.92c-.23,0-.5.08-.63-.21a2.79,2.79,0,0,1-.18-.83l-.13-.94.17-.05a1.78,1.78,0,0,1,.89.05,1,1,0,0,1,.55.85C25.36,84.93,25.15,85.35,24.61,85.41Z"/><path class="cls-2" d="M41,83.3a.62.62,0,0,1-.56-.2,4.92,4.92,0,0,1-.44-.78l-1.81-3.59-.21,0-.52,3.07c-.11.5-.19,1-.29,1.5s-.19.52-.53.63l0,.17.65-.13.69-.06,0-.19c-.19,0-.5.08-.54-.23a5.52,5.52,0,0,1,.12-1.19l0-.19,1.53-.23.35.74a1.8,1.8,0,0,1,.21.56c0,.29-.25.33-.44.35l0,.17c.31,0,.61-.1.9-.15l.9-.1Zm-3.33-1.5.35-2,.9,1.81Z"/><path class="cls-2" d="M58.54,85.77c-.08-.19-.14-.67-.2-.88l-.69-4-.21,0L56,83.66,55.27,85a.64.64,0,0,1-.69.44l0,.17c.23,0,.44,0,.67.08l.69.13,0-.17c-.19-.06-.5-.09-.46-.4A4.3,4.3,0,0,1,56,84.16L56,84l1.56.23.13.81a3,3,0,0,1,0,.61c0,.27-.35.21-.54.21l0,.16c.31,0,.63.07.92.11l.89.17,0-.17A.71.71,0,0,1,58.54,85.77Zm-2.29-2,.94-1.79.33,2Z"/><path class="cls-2" d="M71.27,84.14a.7.7,0,0,1-.63,0,3.74,3.74,0,0,1-.69-.57l-3-2.69-.19.11.61,3.06c.08.51.16,1,.25,1.53a.65.65,0,0,1-.27.75l.08.16.56-.35c.21-.12.42-.21.63-.33l-.09-.15c-.16.09-.46.25-.6,0a5.1,5.1,0,0,1-.29-1.15l0-.19L69,83.55l.61.55a2.87,2.87,0,0,1,.39.45c.15.25-.14.4-.29.48l.08.15c.28-.15.53-.31.8-.48s.54-.27.81-.42ZM67.53,84l-.37-2,1.5,1.35Z"/><path class="cls-2" d="M78.9,78.34a.69.69,0,0,1-.6.1,3.53,3.53,0,0,1-.75-.48l-3.3-2.34-.19.13,1,3c.13.5.27,1,.42,1.48a.68.68,0,0,1-.19.8l.11.12.52-.41a6.46,6.46,0,0,1,.58-.38l-.1-.15c-.17.11-.42.32-.61,0a3.79,3.79,0,0,1-.41-1.11l-.07-.19L76.54,78l.65.48a1.64,1.64,0,0,1,.46.4c.17.23-.08.42-.23.52l.11.15c.25-.19.48-.4.72-.59s.51-.33.75-.5Zm-3.69.27-.63-1.94,1.67,1.19Z"/></g></g></svg>